<?xml version="1.0" encoding="utf-8"?>
<!-- Generator: Adobe Illustrator 25.0.0, SVG Export Plug-In . SVG Version: 6.00 Build 0)  -->
<svg version="1.1" id="Layer_1" xmlns="http://www.w3.org/2000/svg" xmlns:xlink="http://www.w3.org/1999/xlink" x="0px" y="0px"
	 viewBox="0 0 10 16" style="enable-background:new 0 0 10 16;" xml:space="preserve">
<style type="text/css">
	.st0{fill-rule:evenodd;clip-rule:evenodd;fill:#45B374;}
	.st1{fill-rule:evenodd;clip-rule:evenodd;fill:#DDDDDD;}
</style>
<g id="Group-2-Copy" transform="matrix(-1 8.742278E-08 -8.742278E-08 -1 10 15.872925)">
	<path id="_xD83C__xDFA8_-Icon-color" class="st0" d="M9.8,11.2l-4.5,4.5c-0.2,0.2-0.5,0.2-0.7,0l-4.5-4.5C0,11,0,10.7,0.1,10.5
		l0.4-0.4C0.7,10,1,10,1.2,10.1L5,13.9l3.8-3.8C9,10,9.3,10,9.5,10.1l0.4,0.4C10.1,10.7,10.1,11,9.8,11.2z"/>
	<path id="_xD83C__xDFA8_-Icon-color_1_" class="st1" d="M9.8,4.6L5.4,0.1C5.2,0,4.8,0,4.6,0.1L0.1,4.6C0,4.8,0,5.2,0.1,5.4l0.4,0.4
		c0.2,0.2,0.5,0.2,0.7,0L5,2l3.8,3.8c0.2,0.2,0.5,0.2,0.7,0l0.4-0.4C10.1,5.2,10.1,4.8,9.8,4.6z"/>
</g>
</svg>
