<?xml version="1.0" encoding="utf-8"?>
<svg width="35px" height="35px" viewbox="0 0 35 35" version="1.1" xmlns:xlink="http://www.w3.org/1999/xlink" xmlns="http://www.w3.org/2000/svg">
  <defs>
    <path d="M0 34.3L34.3 34.3L34.3 0L0 0L0 34.3Z" id="path_1" />
    <clipPath id="mask_1">
      <use xlink:href="#path_1" />
    </clipPath>
  </defs>
  <g id="Group-38" transform="translate(0.35009766 0.3499756)">
    <path d="M23.1 33.6L2.1 33.6C0.9422 33.6 0 32.6578 0 31.5L0 2.1C0 0.9422 0.9422 0 2.1 0L23.1 0C24.2578 0 25.2 0.9422 25.2 2.1L25.2 10.5L23.8 10.5L23.8 2.1C23.8 1.7136 23.4864 1.4 23.1 1.4L2.1 1.4C1.7136 1.4 1.4 1.7136 1.4 2.1L1.4 31.5C1.4 31.8864 1.7136 32.2 2.1 32.2L23.1 32.2C23.4864 32.2 23.8 31.8864 23.8 31.5L23.8 28.7L25.2 28.7L25.2 31.5C25.2 32.6578 24.2578 33.6 23.1 33.6" transform="translate(0.35009766 0.3499756)" id="Fill-1" fill="#41BFB0" fill-rule="evenodd" stroke="none" />
    <path d="M23.1 33.6L2.1 33.6C0.9422 33.6 0 32.6578 0 31.5L0 2.1C0 0.9422 0.9422 0 2.1 0L23.1 0C24.2578 0 25.2 0.9422 25.2 2.1L25.2 10.5L23.8 10.5L23.8 2.1C23.8 1.7136 23.4864 1.4 23.1 1.4L2.1 1.4C1.7136 1.4 1.4 1.7136 1.4 2.1L1.4 31.5C1.4 31.8864 1.7136 32.2 2.1 32.2L23.1 32.2C23.4864 32.2 23.8 31.8864 23.8 31.5L23.8 28.7L25.2 28.7L25.2 31.5C25.2 32.6578 24.2578 33.6 23.1 33.6Z" transform="translate(0.35009766 0.3499756)" id="Stroke-3" fill="none" fill-rule="evenodd" stroke="none" />
    <path d="M1.3999 1.40002L1.3999 3.50002C1.3999 3.88642 1.7135 4.20002 2.0999 4.20002L11.8999 4.20002C12.2863 4.20002 12.5999 3.88642 12.5999 3.50002L12.5999 1.40002L1.3999 1.40002ZM11.9 5.6L2.1 5.6C0.9422 5.6 0 4.6578 0 3.5L0 0.7C0 0.3129 0.3129 0 0.7 0L13.3 0C13.6871 0 14 0.3129 14 0.7L14 3.5C14 4.6578 13.0578 5.6 11.9 5.6L11.9 5.6Z" transform="translate(5.949951 0.3499756)" id="Fill-5" fill="#41BFB0" fill-rule="evenodd" stroke="none" />
    <path d="M1.3999 1.40002L1.3999 3.50002C1.3999 3.88642 1.7135 4.20002 2.0999 4.20002L11.8999 4.20002C12.2863 4.20002 12.5999 3.88642 12.5999 3.50002L12.5999 1.40002L1.3999 1.40002ZM11.9 5.6L2.1 5.6C0.9422 5.6 0 4.6578 0 3.5L0 0.7C0 0.3129 0.3129 0 0.7 0L13.3 0C13.6871 0 14 0.3129 14 0.7L14 3.5C14 4.6578 13.0578 5.6 11.9 5.6Z" transform="translate(5.949951 0.3499756)" id="Stroke-7" fill="none" fill-rule="evenodd" stroke="none" />
    <path d="M9.8 19.6C4.396 19.6 0 15.204 0 9.8C0 4.396 4.396 0 9.8 0C12.2794 0 14.6454 0.9275 16.4619 2.6117L15.5099 3.6386C13.9531 2.1952 11.9252 1.4 9.8 1.4C5.1681 1.4 1.4 5.1681 1.4 9.8C1.4 14.4319 5.1681 18.2 9.8 18.2C14.4319 18.2 18.2 14.4319 18.2 9.8C18.2 9.4885 18.1832 9.1728 18.1482 8.8641L19.5398 8.7094C19.5797 9.0699 19.6 9.4367 19.6 9.8C19.6 15.204 15.204 19.6 9.8 19.6" transform="translate(14.350098 10.150024)" id="Fill-9" fill="#41BFB0" fill-rule="evenodd" stroke="none" />
    <path d="M9.8 19.6C4.396 19.6 0 15.204 0 9.8C0 4.396 4.396 0 9.8 0C12.2794 0 14.6454 0.9275 16.4619 2.6117L15.5099 3.6386C13.9531 2.1952 11.9252 1.4 9.8 1.4C5.1681 1.4 1.4 5.1681 1.4 9.8C1.4 14.4319 5.1681 18.2 9.8 18.2C14.4319 18.2 18.2 14.4319 18.2 9.8C18.2 9.4885 18.1832 9.1728 18.1482 8.8641L19.5398 8.7094C19.5797 9.0699 19.6 9.4367 19.6 9.8C19.6 15.204 15.204 19.6 9.8 19.6Z" transform="translate(14.350098 10.150024)" id="Stroke-11" fill="none" fill-rule="evenodd" stroke="none" />
    <path d="M0 34.3L34.3 34.3L34.3 0L0 0L0 34.3Z" id="Clip-14" fill="none" fill-rule="evenodd" stroke="none" />
    <g clip-path="url(#mask_1)">
      <path d="M0 1.4L5.6 1.4L5.6 0L0 0L0 1.4Z" transform="translate(10.149902 8.050049)" id="Fill-13" fill="#41BFB0" fill-rule="evenodd" stroke="none" />
      <path d="M0 1.4L5.6 1.4L5.6 0L0 0L0 1.4Z" transform="translate(10.149902 8.050049)" id="Stroke-15" fill="none" fill-rule="evenodd" stroke="none" />
      <path d="M0 1.4L7.7 1.4L7.7 0L0 0L0 1.4Z" transform="translate(8.050049 11.550049)" id="Fill-16" fill="#41BFB0" fill-rule="evenodd" stroke="none" />
      <path d="M0 1.4L7.7 1.4L7.7 0L0 0L0 1.4Z" transform="translate(8.050049 11.550049)" id="Stroke-17" fill="none" fill-rule="evenodd" stroke="none" />
      <path d="M0 1.4L2.1 1.4L2.1 0L0 0L0 1.4Z" transform="translate(3.8500977 11.550049)" id="Fill-18" fill="#41BFB0" fill-rule="evenodd" stroke="none" />
      <path d="M0 1.4L2.1 1.4L2.1 0L0 0L0 1.4Z" transform="translate(3.8500977 11.550049)" id="Stroke-19" fill="none" fill-rule="evenodd" stroke="none" />
      <path d="M0 1.4L4.9 1.4L4.9 0L0 0L0 1.4Z" transform="translate(8.050049 15.050049)" id="Fill-20" fill="#41BFB0" fill-rule="evenodd" stroke="none" />
      <path d="M0 1.4L4.9 1.4L4.9 0L0 0L0 1.4Z" transform="translate(8.050049 15.050049)" id="Stroke-21" fill="none" fill-rule="evenodd" stroke="none" />
      <path d="M0 1.4L2.1 1.4L2.1 0L0 0L0 1.4Z" transform="translate(3.8500977 15.050049)" id="Fill-22" fill="#41BFB0" fill-rule="evenodd" stroke="none" />
      <path d="M0 1.4L2.1 1.4L2.1 0L0 0L0 1.4Z" transform="translate(3.8500977 15.050049)" id="Stroke-23" fill="none" fill-rule="evenodd" stroke="none" />
      <path d="M0 1.4L4.9 1.4L4.9 0L0 0L0 1.4Z" transform="translate(8.050049 18.550049)" id="Fill-24" fill="#41BFB0" fill-rule="evenodd" stroke="none" />
      <path d="M0 1.4L4.9 1.4L4.9 0L0 0L0 1.4Z" transform="translate(8.050049 18.550049)" id="Stroke-25" fill="none" fill-rule="evenodd" stroke="none" />
      <path d="M0 1.4L2.1 1.4L2.1 0L0 0L0 1.4Z" transform="translate(3.8500977 18.550049)" id="Fill-26" fill="#41BFB0" fill-rule="evenodd" stroke="none" />
      <path d="M0 1.4L2.1 1.4L2.1 0L0 0L0 1.4Z" transform="translate(3.8500977 18.550049)" id="Stroke-27" fill="none" fill-rule="evenodd" stroke="none" />
      <path d="M0 1.4L4.9 1.4L4.9 0L0 0L0 1.4Z" transform="translate(8.050049 22.050049)" id="Fill-28" fill="#41BFB0" fill-rule="evenodd" stroke="none" />
      <path d="M0 1.4L4.9 1.4L4.9 0L0 0L0 1.4Z" transform="translate(8.050049 22.050049)" id="Stroke-29" fill="none" fill-rule="evenodd" stroke="none" />
      <path d="M0 1.4L2.1 1.4L2.1 0L0 0L0 1.4Z" transform="translate(3.8500977 22.050049)" id="Fill-30" fill="#41BFB0" fill-rule="evenodd" stroke="none" />
      <path d="M0 1.4L2.1 1.4L2.1 0L0 0L0 1.4Z" transform="translate(3.8500977 22.050049)" id="Stroke-31" fill="none" fill-rule="evenodd" stroke="none" />
      <path d="M0 1.4L6.3 1.4L6.3 0L0 0L0 1.4Z" transform="translate(8.050049 25.550049)" id="Fill-32" fill="#41BFB0" fill-rule="evenodd" stroke="none" />
      <path d="M0 1.4L6.3 1.4L6.3 0L0 0L0 1.4Z" transform="translate(8.050049 25.550049)" id="Stroke-33" fill="none" fill-rule="evenodd" stroke="none" />
      <path d="M0 1.4L2.1 1.4L2.1 0L0 0L0 1.4Z" transform="translate(3.8500977 25.550049)" id="Fill-34" fill="#41BFB0" fill-rule="evenodd" stroke="none" />
      <path d="M0 1.4L2.1 1.4L2.1 0L0 0L0 1.4Z" transform="translate(3.8500977 25.550049)" id="Stroke-35" fill="none" fill-rule="evenodd" stroke="none" />
      <path d="M4.6949 11.6949C4.5157 11.6949 4.3365 11.6263 4.2 11.4898L0 7.2898L0.9898 6.3L4.6949 10.0051L14.7 0L15.6898 0.9898L5.1898 11.4898C5.0533 11.6263 4.8741 11.6949 4.6949 11.6949" transform="translate(18.055176 13.855103)" id="Fill-36" fill="#41BFB0" fill-rule="evenodd" stroke="none" />
      <path d="M4.6949 11.6949C4.5157 11.6949 4.3365 11.6263 4.2 11.4898L0 7.2898L0.9898 6.3L4.6949 10.0051L14.7 0L15.6898 0.9898L5.1898 11.4898C5.0533 11.6263 4.8741 11.6949 4.6949 11.6949Z" transform="translate(18.055176 13.855103)" id="Stroke-37" fill="none" fill-rule="evenodd" stroke="none" />
    </g>
  </g>
</svg>