<?xml version="1.0" encoding="utf-8"?>
<svg width="27px" height="7px" viewbox="0 0 27 7" version="1.1" xmlns:xlink="http://www.w3.org/1999/xlink" xmlns="http://www.w3.org/2000/svg">
  <g id="Group-13">
    <path d="M0 3.5C0 1.567 1.567 0 3.5 0C5.433 0 7 1.567 7 3.5C7 5.433 5.433 7 3.5 7C1.567 7 0 5.433 0 3.5Z" id="Ellipse" fill="#452B78" fill-rule="evenodd" stroke="none" />
    <path d="M0 3.5C0 1.567 1.567 0 3.5 0C5.433 0 7 1.567 7 3.5C7 5.433 5.433 7 3.5 7C1.567 7 0 5.433 0 3.5Z" transform="translate(10 0)" id="Ellipse-2" fill="#452B78" fill-rule="evenodd" stroke="none" />
    <path d="M0 3.5C0 1.567 1.567 0 3.5 0C5.433 0 7 1.567 7 3.5C7 5.433 5.433 7 3.5 7C1.567 7 0 5.433 0 3.5Z" transform="translate(20 0)" id="Ellipse-3" fill="#452B78" fill-rule="evenodd" stroke="none" />
  </g>
</svg>