<?xml version="1.0" encoding="utf-8"?>
<svg width="20px" height="20px" viewbox="0 0 20 20" version="1.1" xmlns:xlink="http://www.w3.org/1999/xlink" xmlns="http://www.w3.org/2000/svg">
  <g id="Group-6" transform="translate(0.5 0.5)">
    <g id="Group-3-Copy-3">
      <g id="Group-8">
        <path d="M9.5 19C14.7467 19 19 14.7467 19 9.5C19 4.25329 14.7467 0 9.5 0C4.25329 0 0 4.25329 0 9.5C0 14.7467 4.25329 19 9.5 19Z" id="Oval" fill="#452B78" fill-opacity="0.12156863" fill-rule="evenodd" stroke="none" />
        <g id="Icon-(Left)" transform="matrix(0.99999994 0 0 0.99999994 7.000244 3)">
          <path d="M0 0L1 0L1 13L0 13L0 0Z" id="🎨-Icon-color" fill="#452B78" fill-rule="evenodd" stroke="none" />
        </g>
      </g>
    </g>
    <g id="Group-2" transform="matrix(-1 0 0 1 15.5 6.5161133)">
      <path d="M2.97066 0L0 2.87058L2.97066 5.88379" id="Path-3" fill="none" fill-rule="evenodd" stroke="#452B78" stroke-width="1" />
      <path d="M0 0.247555L5.53494 0.247555" transform="translate(0.4951172 2.6230469)" id="Line-2" fill="none" fill-rule="evenodd" stroke="#452B78" stroke-width="1" stroke-linecap="square" />
    </g>
  </g>
</svg>