<?xml version="1.0" encoding="utf-8"?>
<svg width="25px" height="29px" viewbox="0 0 25 29" version="1.1" xmlns:xlink="http://www.w3.org/1999/xlink" xmlns="http://www.w3.org/2000/svg">
  <defs>
    <path d="M0 0L23.0086 0L23.0086 27.1679L0 27.1679L0 0Z" transform="translate(5.7534808E-06 9.6E-05)" id="path_1" />
    <clipPath id="mask_1">
      <use xlink:href="#path_1" />
    </clipPath>
  </defs>
  <g id="Group-12" transform="translate(0.30004883 0.2999878)">
    <g id="Group-3">
      <path d="M0 0L23.0086 0L23.0086 27.1679L0 27.1679L0 0Z" transform="translate(5.7534808E-06 9.6E-05)" id="Clip-2" fill="none" fill-rule="evenodd" stroke="none" />
      <g clip-path="url(#mask_1)">
        <path d="M3.48712 22.558C3.48712 22.7035 3.49557 22.8488 3.51217 22.9898C3.55009 23.312 3.75669 23.54 4.09403 23.632C4.24869 23.6741 4.40795 23.6798 4.54341 23.6798C8.65384 23.6816 12.764 23.6816 16.8748 23.6816L18.5652 23.6816L18.5652 25.5237L1.63115 25.5237L1.63115 4.45584L3.48616 4.45584L3.48616 6.65376C3.48616 12.5952 3.48606 16.6165 3.48712 22.558L3.48712 22.558ZM5.12085 22.0349L21.3734 22.0349L21.3734 1.63757L5.12085 1.63757L5.12085 22.0349ZM23.008 20.4704C23.008 13.364 23.0081 8.17747 23.007 1.07107C23.007 0.937727 23.0031 0.795071 22.9757 0.654911C22.9126 0.333407 22.7059 0.117791 22.3939 0.0478067C22.2591 0.0175667 22.1099 0.00211074 21.9505 0.00201474C18.5132 9.47382e-05 15.076 0.000190738 11.6389 0.000286738L10.2769 0.000286738L8.6667 9.47382e-05C7.26664 9.47382e-05 5.86638 -0.000289262 4.46603 0.000958738C3.81313 0.00163074 3.49288 0.316895 3.48712 0.964991C3.48414 1.30205 3.48481 1.6392 3.48549 1.97625C3.48587 2.12601 3.48616 2.27577 3.48616 2.42544L3.48616 2.81462L3.31086 2.81472L2.14494 2.81453C1.74491 2.81443 1.34478 2.81414 0.944749 2.8151C0.510829 2.81616 0.234061 2.96755 0.0988934 3.27792C0.0141254 3.47241 0.00318145 3.69513 0.00308545 3.86736C-0.000562553 11.2897 -0.000466553 17.3832 0.000781447 26.1228C0.000781447 26.2295 0.00865345 26.3423 0.0255494 26.4776C0.0662534 26.8043 0.267661 27.0259 0.607981 27.1185C0.762445 27.1604 0.921709 27.1662 1.05726 27.1663C5.18939 27.1677 9.99361 27.168 14.1257 27.168C15.3493 27.168 16.5729 27.1679 17.7964 27.1679L19.1353 27.1679C19.8956 27.1679 20.1924 26.8752 20.1935 26.1239C20.1942 25.6938 20.194 24.5917 20.1938 24.1486L20.1937 23.6816L20.3691 23.6816C20.5448 23.6822 20.7193 23.682 20.8945 23.6825C21.2863 23.6836 21.6916 23.6847 22.0908 23.6798C22.6627 23.6725 22.9794 23.3654 23.0068 22.7915C23.009 22.7449 23.0087 22.6981 23.0083 22.6514L23.008 20.4704Z" transform="translate(5.7534808E-06 4.9261762E-05)" id="Fill-1" fill="#452B78" fill-rule="evenodd" stroke="#FFFFFF" stroke-width="0.6" />
      </g>
    </g>
    <path d="M0.911565 1.62842C2.29339 1.62967 3.67531 1.62938 5.05713 1.62919L12.1689 1.62909L12.2302 1.62967C12.2517 1.62995 12.2735 1.63024 12.2955 1.63024C12.3347 1.63024 12.3748 1.62928 12.4156 1.62573C12.8543 1.588 13.1852 1.23962 13.1854 0.815299C13.1855 0.389731 12.8546 0.041059 12.4157 0.004291C12.3522 -0.001085 12.2906 -0.000221004 12.2313 0.000642996L1.0163 0.001315L0.951789 0.000642996C0.883629 -0.000125004 0.813165 -0.001277 0.740301 0.006595C0.353421 0.049027 0.0589887 0.334819 0.00753272 0.717955C-0.0229953 0.946339 0.0398847 1.16339 0.184941 1.32938C0.353229 1.52196 0.611277 1.62813 0.911565 1.62842" transform="translate(6.654785 9.170776)" id="Fill-4" fill="#452B78" fill-rule="evenodd" stroke="#FFFFFF" stroke-width="0.6" />
    <path d="M12.2489 0L12.2469 0C9.41962 0.002112 6.59213 0.002112 3.76503 0.002112L0.937732 0.002112L0.906052 0.002016C0.842596 0.00144 0.777412 0.00144 0.708964 0.011328C0.3481 0.063936 0.0747876 0.329376 0.0126756 0.687552C-0.0279324 0.921792 0.0297636 1.14605 0.175204 1.31894C0.340804 1.51594 0.608932 1.62902 0.910948 1.62922C2.28644 1.63037 3.66192 1.63018 5.03751 1.62998L11.1521 1.62989C11.2732 1.62989 11.3942 1.63056 11.5153 1.63133C11.6352 1.63219 11.7568 1.63296 11.879 1.63296C12.0372 1.63296 12.1965 1.63162 12.3545 1.6273C12.6611 1.61914 12.9314 1.46621 13.0776 1.21824C13.2175 0.981216 13.2229 0.701184 13.0927 0.449856C12.884 0.047136 12.5117 0 12.2489 0" transform="translate(6.6552734 11.984924)" id="Fill-6" fill="#452B78" fill-rule="evenodd" stroke="#FFFFFF" stroke-width="0.6" />
    <path d="M0.954401 1.62628C1.80736 1.62696 2.66022 1.62715 3.51318 1.62715C4.0241 1.62715 4.53501 1.62705 5.04592 1.62696L6.5801 1.62686L7.5449 1.62696C9.07245 1.62744 10.6001 1.62734 12.1277 1.62504C12.2918 1.62484 12.4415 1.60891 12.5726 1.57771C12.9724 1.48257 13.2251 1.08744 13.1481 0.678188C13.0635 0.228428 12.7331 0.000332439 12.1661 0.000332439C8.44182 -0.000147561 4.71731 -0.000435561 0.992993 0.00186844C0.831328 0.00196444 0.692801 0.0185724 0.569536 0.0523644C0.168448 0.16286 -0.0644475 0.54542 0.0157125 0.961964C0.0981765 1.38993 0.431489 1.6258 0.954401 1.62628" transform="translate(6.6672363 14.801941)" id="Fill-8" fill="#452B78" fill-rule="evenodd" stroke="#FFFFFF" stroke-width="0.6" />
    <path d="M0.940875 1.62639C1.43739 1.62744 1.93371 1.62773 2.43022 1.62773C2.76785 1.62773 3.10548 1.62754 3.44312 1.62744L4.45572 1.62715L5.27038 1.62735C6.153 1.62754 7.03582 1.62783 7.91863 1.62523C8.08779 1.62466 8.23371 1.60834 8.36465 1.57512C8.75393 1.47682 9.00391 1.06757 8.92193 0.662547C8.86088 0.360723 8.64363 0.000914717 7.9556 0.000626716C5.6299 -0.000333284 3.30411 -0.000429284 0.978507 0.00206672C0.835083 0.00216272 0.701835 0.0180987 0.582507 0.0493947C0.170859 0.157587 -0.0714447 0.556563 0.0187953 0.977523C0.108363 1.39493 0.435819 1.62533 0.940875 1.62639" transform="translate(6.668457 6.3585205)" id="Fill-10" fill="#452B78" fill-rule="evenodd" stroke="#FFFFFF" stroke-width="0.6" />
  </g>
</svg>