<svg width="35" height="35" xmlns:xlink="http://www.w3.org/1999/xlink" xmlns="http://www.w3.org/2000/svg"><defs><clipPath id="b"><use xlink:href="#a"/></clipPath><path d="M0 34.3h34.3V0H0v34.3z" id="a"/></defs><path d="M23.8 34.3h-21c-1.158 0-2.1-.942-2.1-2.1V2.8C.7 1.642 1.642.7 2.8.7h21c1.158 0 2.1.942 2.1 2.1v8.4h-1.4V2.8a.7.7 0 00-.7-.7h-21a.7.7 0 00-.7.7v29.4a.7.7 0 00.7.7h21a.7.7 0 00.7-.7v-2.8h1.4v2.8c0 1.158-.942 2.1-2.1 2.1" fill="#41BFB0" fill-rule="evenodd"/><path d="M23.8 34.3h-21c-1.158 0-2.1-.942-2.1-2.1V2.8C.7 1.642 1.642.7 2.8.7h21c1.158 0 2.1.942 2.1 2.1v8.4h-1.4V2.8a.7.7 0 00-.7-.7h-21a.7.7 0 00-.7.7v29.4a.7.7 0 00.7.7h21a.7.7 0 00.7-.7v-2.8h1.4v2.8c0 1.158-.942 2.1-2.1 2.1z" fill="none"/><path d="M7.7 2.1v2.1a.7.7 0 00.7.7h9.8a.7.7 0 00.7-.7V2.1H7.7zm10.5 4.2H8.4c-1.158 0-2.1-.942-2.1-2.1V1.4A.7.7 0 017 .7h12.6a.7.7 0 01.7.7v2.8c0 1.158-.942 2.1-2.1 2.1z" fill="#41BFB0" fill-rule="evenodd"/><path d="M7.7 2.1v2.1a.7.7 0 00.7.7h9.8a.7.7 0 00.7-.7V2.1H7.7zm10.5 4.2H8.4c-1.158 0-2.1-.942-2.1-2.1V1.4A.7.7 0 017 .7h12.6a.7.7 0 01.7.7v2.8c0 1.158-.942 2.1-2.1 2.1z" fill="none"/><path d="M24.5 30.1c-5.404 0-9.8-4.396-9.8-9.8 0-5.404 4.396-9.8 9.8-9.8 2.48 0 4.846.927 6.662 2.612l-.952 1.027A8.373 8.373 0 0024.5 11.9c-4.632 0-8.4 3.768-8.4 8.4 0 4.632 3.768 8.4 8.4 8.4 4.632 0 8.4-3.768 8.4-8.4a8.35 8.35 0 00-.052-.936l1.392-.155c.04.36.06.728.06 1.091 0 5.404-4.396 9.8-9.8 9.8" fill="#41BFB0" fill-rule="evenodd"/><path d="M24.5 30.1c-5.404 0-9.8-4.396-9.8-9.8 0-5.404 4.396-9.8 9.8-9.8 2.48 0 4.846.927 6.662 2.612l-.952 1.027A8.373 8.373 0 0024.5 11.9c-4.632 0-8.4 3.768-8.4 8.4 0 4.632 3.768 8.4 8.4 8.4 4.632 0 8.4-3.768 8.4-8.4a8.35 8.35 0 00-.052-.936l1.392-.155c.04.36.06.728.06 1.091 0 5.404-4.396 9.8-9.8 9.8z" fill="none"/><path d="M.35 34.65h34.3V.35H.35v34.3z" fill="none"/><g clip-path="url(#b)" transform="translate(.35 .35)"><path d="M10.15 9.45h5.6v-1.4h-5.6v1.4z" fill="#41BFB0" fill-rule="evenodd"/><path d="M10.15 9.45h5.6v-1.4h-5.6v1.4z" fill="none"/><path d="M8.05 12.95h7.7v-1.4h-7.7v1.4z" fill="#41BFB0" fill-rule="evenodd"/><path d="M8.05 12.95h7.7v-1.4h-7.7v1.4z" fill="none"/><path d="M3.85 12.95h2.1v-1.4h-2.1v1.4z" fill="#41BFB0" fill-rule="evenodd"/><path d="M3.85 12.95h2.1v-1.4h-2.1v1.4z" fill="none"/><path d="M8.05 16.45h4.9v-1.4h-4.9v1.4z" fill="#41BFB0" fill-rule="evenodd"/><path d="M8.05 16.45h4.9v-1.4h-4.9v1.4z" fill="none"/><path d="M3.85 16.45h2.1v-1.4h-2.1v1.4z" fill="#41BFB0" fill-rule="evenodd"/><path d="M3.85 16.45h2.1v-1.4h-2.1v1.4z" fill="none"/><path d="M8.05 19.95h4.9v-1.4h-4.9v1.4z" fill="#41BFB0" fill-rule="evenodd"/><path d="M8.05 19.95h4.9v-1.4h-4.9v1.4z" fill="none"/><path d="M3.85 19.95h2.1v-1.4h-2.1v1.4z" fill="#41BFB0" fill-rule="evenodd"/><path d="M3.85 19.95h2.1v-1.4h-2.1v1.4z" fill="none"/><path d="M8.05 23.45h4.9v-1.4h-4.9v1.4z" fill="#41BFB0" fill-rule="evenodd"/><path d="M8.05 23.45h4.9v-1.4h-4.9v1.4z" fill="none"/><path d="M3.85 23.45h2.1v-1.4h-2.1v1.4z" fill="#41BFB0" fill-rule="evenodd"/><path d="M3.85 23.45h2.1v-1.4h-2.1v1.4z" fill="none"/><path d="M8.05 26.95h6.3v-1.4h-6.3v1.4z" fill="#41BFB0" fill-rule="evenodd"/><path d="M8.05 26.95h6.3v-1.4h-6.3v1.4z" fill="none"/><path d="M3.85 26.95h2.1v-1.4h-2.1v1.4z" fill="#41BFB0" fill-rule="evenodd"/><path d="M3.85 26.95h2.1v-1.4h-2.1v1.4z" fill="none"/><path d="M22.75 25.55a.698.698 0 01-.495-.205l-4.2-4.2.99-.99 3.705 3.705 10.005-10.005.99.99-10.5 10.5a.698.698 0 01-.495.205" fill="#41BFB0" fill-rule="evenodd"/><path d="M22.75 25.55a.698.698 0 01-.495-.205l-4.2-4.2.99-.99 3.705 3.705 10.005-10.005.99.99-10.5 10.5a.698.698 0 01-.495.205z" fill="none"/></g></svg>