<?xml version="1.0" encoding="utf-8"?>
<svg width="23px" height="21px" viewbox="0 0 23 21" version="1.1" xmlns:xlink="http://www.w3.org/1999/xlink" xmlns="http://www.w3.org/2000/svg">
  <g id="filter" transform="matrix(-1 0 0 1 23 0)">
    <path d="M22.9334 0.39598C22.8184 0.154212 22.5727 0 22.3029 0L0.697121 0C0.427305 0 0.181746 0.154212 0.0665883 0.39598C-0.0484765 0.637747 -0.0124142 0.923523 0.159254 1.12975L8.46484 11.1083L8.46484 20.3095C8.46484 20.5484 8.58947 20.7703 8.79432 20.8962C8.9066 20.9652 9.03402 21 9.16192 21C9.26759 21 9.37364 20.9762 9.47142 20.9282L14.138 18.6371C14.3751 18.5207 14.5251 18.2814 14.5254 18.0193L14.5346 11.1086L22.8406 1.12966C23.0124 0.923523 23.0485 0.637655 22.9334 0.39598ZM13.3001 10.4211C13.1974 10.5444 13.141 10.6994 13.1409 10.8594L13.1319 17.5897L9.85909 19.1966L9.85909 10.8603C9.85909 10.7 9.80286 10.5447 9.69988 10.4211L2.1753 1.38091L20.8246 1.38091L13.3001 10.4211Z" id="Shape" fill="#FFFFFF" stroke="none" />
  </g>
</svg>