<svg width="25" height="29" xmlns:xlink="http://www.w3.org/1999/xlink" xmlns="http://www.w3.org/2000/svg"><defs><clipPath id="b"><use xlink:href="#a"/></clipPath><path d="M0 0h23.009v27.168H0V0z" id="a"/></defs><path d="M.3.3h23.01v27.168H.3V.3z" fill="none"/><g clip-path="url(#b)" transform="translate(.3 .3)"><path d="M3.487 22.558c0 .146.009.29.025.432.038.322.245.55.582.642.155.042.314.048.45.048 4.11.002 8.22.002 12.33.002h1.691v1.842H1.631V4.456h1.855v2.198l.001 15.904h0zm1.634-.523h16.252V1.638H5.121v20.397zm17.887-1.565l-.001-19.399a2.17 2.17 0 00-.031-.416.733.733 0 00-.582-.607 2.04 2.04 0 00-.443-.046C18.513 0 15.076 0 11.639 0H8.667L4.466.001c-.653 0-.973.316-.979.964a93.138 93.138 0 000 1.46v.39H.944c-.434.001-.71.153-.846.463-.085.194-.096.417-.096.59C0 11.29 0 17.382.001 26.122c0 .107.008.22.025.355.04.326.242.548.582.64.154.042.314.048.45.048 4.131.002 8.936.002 13.068.002h5.01c.76 0 1.056-.293 1.058-1.044v-2.442h.701c.391.002.797.003 1.196-.002.572-.007.888-.315.916-.888.002-.047.002-.094.001-.14V20.47z" fill="#452B78" fill-rule="evenodd" stroke="#FFF" stroke-width=".6"/></g><path d="M7.866 11.1h11.319l.065.001c.04 0 .08-.001.12-.005a.822.822 0 00.77-.81.82.82 0 00-.77-.81 1.843 1.843 0 00-.184-.005l-11.215.001h-.064c-.069-.001-.139-.003-.212.005a.817.817 0 00-.733.712.761.761 0 00.178.611c.168.193.426.299.726.3m11.338 1.185h-.002c-2.827.002-5.655.002-8.482.002H7.861c-.063 0-.128 0-.197.01a.815.815 0 00-.696.675.761.761 0 00.163.632c.165.197.433.31.735.31h10.241a57.107 57.107 0 01.727.004c.159 0 .318-.001.476-.006a.853.853 0 00.723-.409.779.779 0 00.015-.768c-.209-.403-.581-.45-.844-.45M7.922 16.728l2.558.001h4.032c1.528 0 3.055 0 4.583-.002.164 0 .314-.016.445-.047.4-.096.652-.49.575-.9-.084-.45-.415-.678-.982-.678-3.724 0-7.448 0-11.173.002-.161 0-.3.017-.423.05a.77.77 0 00-.554.91c.082.428.416.664.939.664M7.91 8.285l1.489.001h2.84c.883 0 1.765 0 2.648-.002.17 0 .315-.017.446-.05a.783.783 0 00.557-.913c-.06-.302-.278-.662-.966-.662-2.326 0-4.651 0-6.977.002a1.57 1.57 0 00-.396.047.776.776 0 00-.564.928c.09.417.417.648.922.649" fill="#452B78" fill-rule="evenodd" stroke="#FFF" stroke-width=".6"/></svg>