<svg width="33" height="33" xmlns:xlink="http://www.w3.org/1999/xlink" xmlns="http://www.w3.org/2000/svg"><defs><clipPath id="b"><use xlink:href="#a"/></clipPath><path d="M16 32c8.837 0 16-7.163 16-16S24.837 0 16 0 0 7.163 0 16s7.163 16 16 16z" id="a"/></defs><path d="M16.5 32.5c8.837 0 16-7.163 16-16s-7.163-16-16-16-16 7.163-16 16 7.163 16 16 16z" fill="#FFF" fill-rule="evenodd"/><g clip-path="url(#b)" transform="translate(.5 .5)" fill="#8AC44A" fill-rule="evenodd"><path d="M16 32c8.837 0 16-7.163 16-16S24.837 0 16 0 0 7.163 0 16s7.163 16 16 16z" opacity=".248"/><path d="M22.668 14.03L15.8 21.252a1.092 1.092 0 01-1.6 0l-2.87-3.015a1.235 1.235 0 010-1.683 1.093 1.093 0 011.6 0L15 18.73l6.069-6.38a1.092 1.092 0 011.6 0 1.231 1.231 0 010 1.682" stroke="#E3F1D3"/></g></svg>