<svg width="35" height="35" xmlns:xlink="http://www.w3.org/1999/xlink" xmlns="http://www.w3.org/2000/svg"><defs><clipPath id="b"><use xlink:href="#a"/></clipPath><path d="M17 34c9.389 0 17-7.611 17-17S26.389 0 17 0 0 7.611 0 17s7.611 17 17 17z" id="a"/></defs><path d="M17.5 34.5c9.389 0 17-7.611 17-17s-7.611-17-17-17-17 7.611-17 17 7.611 17 17 17z" fill="#FFF" fill-rule="evenodd"/><g clip-path="url(#b)" transform="translate(.5 .5)"><path d="M17 34c9.389 0 17-7.611 17-17S26.389 0 17 0 0 7.611 0 17s7.611 17 17 17z" fill="#491F8B" fill-rule="evenodd" opacity=".248"/></g><g fill="none" stroke="#452B78"><path d="M17.5 11.5l6 5.798-6 6.086"/><path d="M22.5 17.298H11.32" stroke-linecap="square"/></g></svg>