<svg width="22" height="24" xmlns:xlink="http://www.w3.org/1999/xlink" xmlns="http://www.w3.org/2000/svg"><defs><clipPath id="b"><use xlink:href="#a"/></clipPath><path d="M0 0h20.922v17.903H0V0z" transform="translate(0 .043)" id="a"/></defs><path d="M.25.293h20.922v17.903H.25V.293z" fill="none"/><g clip-path="url(#b)" transform="translate(.25 .25)"><path d="M4.108 8.365c.004-3.22 1.894-5.682 4.932-6.427a6.2 6.2 0 011.476-.18c1.9 0 3.712.89 4.952 2.492.886 1.145 1.337 2.496 1.34 4.016.001.395.004.789.006 1.183.007 1.097.014 2.23-.015 3.343-.027 1.066.678 1.894 1.64 1.926.254.009.463.094.603.248a.716.716 0 01.177.53c-.021.441-.358.716-.879.717H2.775l-.081.001c-.084 0-.17.001-.253-.004-.414-.023-.727-.325-.743-.718-.016-.374.243-.677.659-.771.054-.013.109-.024.164-.036.298-.065.607-.131.861-.286.483-.295.728-.79.727-1.472-.002-1.521-.003-3.042 0-4.562m15.578 4.964c-.249-.13-.517-.212-.802-.3a12.18 12.18 0 01-.362-.113v-1.604c-.002-.975-.003-1.983.002-2.975.006-1.517-.336-2.899-1.018-4.107C15.62.887 12.013-.642 8.317.333c-3.249.858-5.721 3.909-5.878 7.254-.054 1.15-.05 2.32-.045 3.452a152.027 152.027 0 010 1.834v.11l-.056.006-.14.018a2.443 2.443 0 00-1.784 1.085A2.485 2.485 0 00.1 16.166c.325 1.114 1.274 1.779 2.538 1.78a24906.564 24906.564 0 0015.639-.002c.201 0 .407-.017.611-.05.977-.155 1.815-.98 1.993-1.962.19-1.044-.313-2.139-1.195-2.603" fill="#FFF" fill-rule="evenodd" stroke="#452B78" stroke-width=".5"/></g><path d="M12.646 19.3c-.165 1.34-.78 2.034-1.83 2.061-1.115.03-1.769-.664-1.944-2.057l-.006-.05H7.25l.003.061c.083 1.572.692 2.718 1.81 3.408.57.352 1.148.527 1.718.527.69 0 1.37-.257 2.018-.769.943-.745 1.43-1.813 1.45-3.173l.001-.058h-1.598l-.006.05z" fill="#FFF" fill-rule="evenodd" stroke="#452B78" stroke-width=".5"/></svg>