<svg width="23" height="23" xmlns="http://www.w3.org/2000/svg"><g fill="none" stroke="#FFF" stroke-linecap="round" stroke-linejoin="round"><path d="M11.5 14.5a3 3 0 100-6 3 3 0 000 6z"/><path d="M18.9 14.5a1.65 1.65 0 00.33 1.82l.06.06a2 2 0 01-1.415 3.417 2 2 0 01-1.415-.587l-.06-.06a1.65 1.65 0 00-1.82-.33 1.65 1.65 0 00-1 1.51v.17a2 2 0 11-4 0v-.09A1.65 1.65 0 008.5 18.9a1.65 1.65 0 00-1.82.33l-.06.06a2 2 0 01-3.417-1.415 2 2 0 01.587-1.415l.06-.06a1.65 1.65 0 00.33-1.82 1.65 1.65 0 00-1.51-1H2.5a2 2 0 110-4h.09A1.65 1.65 0 004.1 8.5a1.65 1.65 0 00-.33-1.82l-.06-.06a2 2 0 112.83-2.83l.06.06a1.65 1.65 0 001.82.33h.08a1.65 1.65 0 001-1.51V2.5a2 2 0 114 0v.09a1.65 1.65 0 001 1.51 1.65 1.65 0 001.82-.33l.06-.06a2 2 0 112.83 2.83l-.06.06a1.65 1.65 0 00-.33 1.82v.08c.26.604.852.997 1.51 1h.17a2 2 0 110 4h-.09a1.65 1.65 0 00-1.51 1z"/></g></svg>