<svg width="25" height="20" xmlns="http://www.w3.org/2000/svg"><path d="M25 2.367c-.92.402-1.907.674-2.946.795A5.083 5.083 0 0024.31.369c-.992.578-2.089 1-3.257 1.225A5.165 5.165 0 0017.308 0c-2.833 0-5.128 2.26-5.128 5.048 0 .396.044.782.132 1.151A14.642 14.642 0 011.74.924a4.974 4.974 0 00-.694 2.538 5.03 5.03 0 002.28 4.203 5.175 5.175 0 01-2.322-.631v.063c0 2.447 1.767 4.488 4.114 4.952a5.24 5.24 0 01-2.316.086c.652 2.005 2.547 3.465 4.79 3.507a10.392 10.392 0 01-6.368 2.162c-.414 0-.823-.024-1.224-.07A14.697 14.697 0 007.862 20c9.434 0 14.594-7.693 14.594-14.365 0-.219-.007-.437-.016-.654A10.317 10.317 0 0025 2.367z" fill="#1B1433" fill-opacity=".115" fill-rule="evenodd"/></svg>