<?xml version="1.0" encoding="utf-8"?>
<svg width="23px" height="23px" viewbox="0 0 23 23" version="1.1" xmlns:xlink="http://www.w3.org/1999/xlink" xmlns="http://www.w3.org/2000/svg">
  <g id="settings" transform="translate(0.5 0.5)">
    <path d="M3 6C4.65685 6 6 4.65685 6 3C6 1.34315 4.65685 0 3 0C1.34315 0 0 1.34315 0 3C0 4.65685 1.34315 6 3 6Z" transform="translate(8 8)" id="Oval" fill="none" fill-rule="evenodd" stroke="#FFFFFF" stroke-width="1" stroke-linecap="round" stroke-linejoin="round" />
    <path d="M18.4 14C18.1277 14.6171 18.2583 15.3378 18.73 15.82L18.79 15.88C19.1656 16.2551 19.3766 16.7642 19.3766 17.295C19.3766 17.8258 19.1656 18.3349 18.79 18.71C18.4149 19.0856 17.9058 19.2966 17.375 19.2966C16.8442 19.2966 16.3351 19.0856 15.96 18.71L15.9 18.65C15.4178 18.1783 14.6971 18.0477 14.08 18.32C13.4755 18.5791 13.0826 19.1724 13.08 19.83L13.08 20C13.08 21.1046 12.1846 22 11.08 22C9.97543 22 9.08 21.1046 9.08 20L9.08 19.91C9.06416 19.2327 8.63587 18.6339 8 18.4C7.38291 18.1277 6.66219 18.2583 6.18 18.73L6.12 18.79C5.74486 19.1656 5.23582 19.3766 4.705 19.3766C4.17418 19.3766 3.66514 19.1656 3.29 18.79C2.91445 18.4149 2.70343 17.9058 2.70343 17.375C2.70343 16.8442 2.91445 16.3351 3.29 15.96L3.35 15.9C3.82167 15.4178 3.95235 14.6971 3.68 14.08C3.42093 13.4755 2.82764 13.0826 2.17 13.08L2 13.08C0.895431 13.08 2.22045e-16 12.1846 0 11.08C-1.11022e-16 9.97543 0.895431 9.08 2 9.08L2.09 9.08C2.76733 9.06416 3.36613 8.63587 3.6 8C3.87235 7.38291 3.74167 6.66219 3.27 6.18L3.21 6.12C2.83445 5.74486 2.62343 5.23582 2.62343 4.705C2.62343 4.17418 2.83445 3.66514 3.21 3.29C3.58514 2.91445 4.09418 2.70343 4.625 2.70343C5.15582 2.70343 5.66486 2.91445 6.04 3.29L6.1 3.35C6.58219 3.82167 7.30291 3.95235 7.92 3.68L8 3.68C8.60447 3.42093 8.99738 2.82764 9 2.17L9 2C9 0.895431 9.89543 2.22045e-16 11 0C12.1046 0 13 0.895431 13 2L13 2.09C13.0026 2.74764 13.3955 3.34093 14 3.6C14.6171 3.87235 15.3378 3.74167 15.82 3.27L15.88 3.21C16.2551 2.83445 16.7642 2.62343 17.295 2.62343C17.8258 2.62343 18.3349 2.83445 18.71 3.21C19.0856 3.58514 19.2966 4.09418 19.2966 4.625C19.2966 5.15582 19.0856 5.66486 18.71 6.04L18.65 6.1C18.1783 6.58219 18.0477 7.30291 18.32 7.92L18.32 8C18.5791 8.60447 19.1724 8.99738 19.83 9L20 9C21.1046 9 22 9.89543 22 11C22 12.1046 21.1046 13 20 13L19.91 13C19.2524 13.0026 18.6591 13.3955 18.4 14Z" id="Path" fill="none" fill-rule="evenodd" stroke="#FFFFFF" stroke-width="1" stroke-linecap="round" stroke-linejoin="round" />
  </g>
</svg>