<svg width="20" height="24" xmlns:xlink="http://www.w3.org/1999/xlink" xmlns="http://www.w3.org/2000/svg"><defs><clipPath id="c"><use xlink:href="#a"/></clipPath><clipPath id="d"><use xlink:href="#b"/></clipPath><path d="M0 0h11.755v11.754H0V0z" id="a"/><path d="M0 0h18.474v10.333H0V0z" transform="translate(0 .035)" id="b"/></defs><path d="M3.503.15h11.755v11.754H3.503V.15z" fill="none"/><g clip-path="url(#c)" transform="translate(3.503 .15)"><path d="M5.867 10.065c2.296.019 4.221-1.878 4.21-4.174-.01-2.347-1.897-4.206-4.175-4.221-2.325-.016-4.194 1.944-4.218 4.134-.025 2.345 1.912 4.292 4.183 4.26M5.89 0c3.195.022 5.886 2.515 5.864 5.957-.02 3.204-2.58 5.818-5.943 5.797-3.2-.02-5.904-2.577-5.81-6.143C.08 2.687 2.526.017 5.892 0" fill="#FFF" fill-rule="evenodd" stroke="#FFF" stroke-width=".3"/></g><path d="M.15 12.613h18.475v10.333H.15V12.613z" fill="none"/><g clip-path="url(#d)" transform="translate(.15 12.578)"><path d="M9.267.035c3.598.14 6.333 1.729 8.087 4.903.78 1.41 1.123 2.95 1.12 4.564 0 .482-.309.82-.77.863-.416.038-.828-.257-.888-.67-.04-.287-.026-.581-.05-.87-.111-1.407-.528-2.713-1.333-3.877-1.267-1.83-3.015-2.883-5.224-3.155-1.679-.207-3.272.072-4.75.914-1.543.878-2.603 2.177-3.242 3.826-.373.963-.533 1.966-.545 2.996-.004.386-.217.678-.566.793-.558.184-1.098-.206-1.105-.808a8.942 8.942 0 01.32-2.51C1.16 3.981 3 1.831 5.926.655a8.833 8.833 0 013.341-.62" fill="#FFF" fill-rule="evenodd" stroke="#FFF" stroke-width=".3"/></g></svg>