<svg width="29" height="34" xmlns="http://www.w3.org/2000/svg"><g fill="#FFF" fill-rule="evenodd"><path d="M14.7 31.5v-1.4c3.474 0 6.3-2.826 6.3-6.3V9.1c0-4.245-3.454-7.7-7.7-7.7H9.1c-4.245 0-7.7 3.454-7.7 7.7v13.3H0V9.1C0 4.082 4.082 0 9.1 0h4.2c5.018 0 9.1 4.082 9.1 9.1v14.7c0 4.245-3.454 7.7-7.7 7.7"/><path d="M22.4 21.7h.7c1.93 0 3.5-1.57 3.5-3.5v-2.8c0-1.93-1.57-3.5-3.5-3.5h-.7v9.8zm.7 1.4h-1.4a.7.7 0 01-.7-.7V11.2a.7.7 0 01.7-.7h1.4c2.702 0 4.9 2.199 4.9 4.9v2.8c0 2.701-2.198 4.9-4.9 4.9zM9.8 29.4c-.772 0-1.4.628-1.4 1.4 0 .772.628 1.4 1.4 1.4h2.8c.772 0 1.4-.628 1.4-1.4 0-.772-.628-1.4-1.4-1.4H9.8zm2.8 4.2H9.8A2.803 2.803 0 017 30.8C7 29.256 8.256 28 9.8 28h2.8c1.544 0 2.8 1.256 2.8 2.8 0 1.544-1.256 2.8-2.8 2.8zM6.3 20.3h2.1a.7.7 0 01.547.263l2.253 2.816 2.253-2.816A.7.7 0 0114 20.3h2.1v-7H6.3v7zm4.9 4.9a.7.7 0 01-.547-.262L8.063 21.7H5.6a.7.7 0 01-.7-.7v-8.4a.7.7 0 01.7-.7h11.2a.7.7 0 01.7.7V21a.7.7 0 01-.7.7h-2.464l-2.59 3.238a.7.7 0 01-.546.262z"/><path d="M10.5 17.5h1.4v-1.4h-1.4v1.4zm-2.8 0h1.4v-1.4H7.7v1.4zm5.6 0h1.4v-1.4h-1.4v1.4z"/></g></svg>