<?xml version="1.0" encoding="utf-8"?>
<svg width="35px" height="35px" viewbox="0 0 35 35" version="1.1" xmlns:xlink="http://www.w3.org/1999/xlink" xmlns="http://www.w3.org/2000/svg">
  <defs>
    <path d="M17 34C26.3888 34 34 26.3888 34 17C34 7.61116 26.3888 0 17 0C7.61116 0 0 7.61116 0 17C0 26.3888 7.61116 34 17 34Z" id="path_1" />
    <clipPath id="mask_1">
      <use xlink:href="#path_1" />
    </clipPath>
  </defs>
  <g id="Group-16" transform="translate(0.5 0.5)">
    <g id="Element-Circle-Icon-Copy-2">
      <g id="Element-Misc-Circle-Icon">
        <path d="M17 34C26.3888 34 34 26.3888 34 17C34 7.61116 26.3888 0 17 0C7.61116 0 0 7.61116 0 17C0 26.3888 7.61116 34 17 34Z" id="Base" fill="#FFFFFF" fill-rule="evenodd" stroke="none" />
        <g clip-path="url(#mask_1)">
          <g id="Oval" opacity="0.2484189">
            <path d="M17 34C26.3888 34 34 26.3888 34 17C34 7.61116 26.3888 0 17 0C7.61116 0 0 7.61116 0 17C0 26.3888 7.61116 34 17 34Z" id="Oval" fill="#491F8B" fill-rule="evenodd" stroke="none" />
          </g>
        </g>
      </g>
    </g>
    <g id="Group-2" transform="matrix(-1 0 0 1 23 11)">
      <path d="M6 0L0 5.79785L6 11.8838" id="Path-3" fill="none" fill-rule="evenodd" stroke="#452B78" stroke-width="1" />
      <path d="M0 0.5L11.1792 0.5" transform="translate(1 5.2978516)" id="Line-2" fill="none" fill-rule="evenodd" stroke="#452B78" stroke-width="1" stroke-linecap="square" />
    </g>
  </g>
</svg>