<?xml version="1.0" encoding="utf-8"?>
<svg width="35px" height="35px" viewbox="0 0 35 35" version="1.1" xmlns:xlink="http://www.w3.org/1999/xlink" xmlns="http://www.w3.org/2000/svg">
  <g id="Group-39" transform="translate(0.35009766 0.3499756)">
    <path d="M14.7 1.4C7.3661 1.4 1.4 7.3661 1.4 14.7C1.4 22.0339 7.3661 28 14.7 28C22.0339 28 28 22.0339 28 14.7C28 7.3661 22.0339 1.4 14.7 1.4M14.7 29.4C6.5947 29.4 0 22.8053 0 14.7C0 6.5947 6.5947 0 14.7 0C22.8053 0 29.4 6.5947 29.4 14.7C29.4 22.8053 22.8053 29.4 14.7 29.4" id="Fill-1" fill="#FFFFFF" fill-rule="evenodd" stroke="none" />
    <path d="M14.7 1.4C7.3661 1.4 1.4 7.3661 1.4 14.7C1.4 22.0339 7.3661 28 14.7 28C22.0339 28 28 22.0339 28 14.7C28 7.3661 22.0339 1.4 14.7 1.4ZM14.7 29.4C6.5947 29.4 0 22.8053 0 14.7C0 6.5947 6.5947 0 14.7 0C22.8053 0 29.4 6.5947 29.4 14.7C29.4 22.8053 22.8053 29.4 14.7 29.4Z" id="Stroke-3" fill="none" fill-rule="evenodd" stroke="none" />
    <path d="M2.8 1.4C2.0279 1.4 1.4 2.0279 1.4 2.8C1.4 3.5721 2.0279 4.2 2.8 4.2C3.5721 4.2 4.2 3.5721 4.2 2.8C4.2 2.0279 3.5721 1.4 2.8 1.4M2.8 5.6C1.2558 5.6 0 4.3442 0 2.8C0 1.2558 1.2558 0 2.8 0C4.3442 0 5.6 1.2558 5.6 2.8C5.6 4.3442 4.3442 5.6 2.8 5.6" transform="translate(14.699951 9.800049)" id="Fill-5" fill="#FFFFFF" fill-rule="evenodd" stroke="none" />
    <path d="M2.8 1.4C2.0279 1.4 1.4 2.0279 1.4 2.8C1.4 3.5721 2.0279 4.2 2.8 4.2C3.5721 4.2 4.2 3.5721 4.2 2.8C4.2 2.0279 3.5721 1.4 2.8 1.4ZM2.8 5.6C1.2558 5.6 0 4.3442 0 2.8C0 1.2558 1.2558 0 2.8 0C4.3442 0 5.6 1.2558 5.6 2.8C5.6 4.3442 4.3442 5.6 2.8 5.6Z" transform="translate(14.699951 9.800049)" id="Stroke-7" fill="none" fill-rule="evenodd" stroke="none" />
    <path d="M2.8 1.4C2.0279 1.4 1.4 2.0279 1.4 2.8C1.4 3.5721 2.0279 4.2 2.8 4.2C3.5721 4.2 4.2 3.5721 4.2 2.8C4.2 2.0279 3.5721 1.4 2.8 1.4M2.8 5.6C1.2558 5.6 0 4.3442 0 2.8C0 1.2558 1.2558 0 2.8 0C4.3442 0 5.6 1.2558 5.6 2.8C5.6 4.3442 4.3442 5.6 2.8 5.6" transform="translate(8.399902 15.400024)" id="Fill-9" fill="#FFFFFF" fill-rule="evenodd" stroke="none" />
    <path d="M2.8 1.4C2.0279 1.4 1.4 2.0279 1.4 2.8C1.4 3.5721 2.0279 4.2 2.8 4.2C3.5721 4.2 4.2 3.5721 4.2 2.8C4.2 2.0279 3.5721 1.4 2.8 1.4ZM2.8 5.6C1.2558 5.6 0 4.3442 0 2.8C0 1.2558 1.2558 0 2.8 0C4.3442 0 5.6 1.2558 5.6 2.8C5.6 4.3442 4.3442 5.6 2.8 5.6Z" transform="translate(8.399902 15.400024)" id="Stroke-11" fill="none" fill-rule="evenodd" stroke="none" />
    <path d="M2.8 1.4C2.0279 1.4 1.4 2.0279 1.4 2.8C1.4 3.5721 2.0279 4.2 2.8 4.2C3.5721 4.2 4.2 3.5721 4.2 2.8C4.2 2.0279 3.5721 1.4 2.8 1.4M2.8 5.6C1.2558 5.6 0 4.3442 0 2.8C0 1.2558 1.2558 0 2.8 0C4.3442 0 5.6 1.2558 5.6 2.8C5.6 4.3442 4.3442 5.6 2.8 5.6" transform="translate(17.5 18.200073)" id="Fill-13" fill="#FFFFFF" fill-rule="evenodd" stroke="none" />
    <path d="M2.8 1.4C2.0279 1.4 1.4 2.0279 1.4 2.8C1.4 3.5721 2.0279 4.2 2.8 4.2C3.5721 4.2 4.2 3.5721 4.2 2.8C4.2 2.0279 3.5721 1.4 2.8 1.4ZM2.8 5.6C1.2558 5.6 0 4.3442 0 2.8C0 1.2558 1.2558 0 2.8 0C4.3442 0 5.6 1.2558 5.6 2.8C5.6 4.3442 4.3442 5.6 2.8 5.6Z" transform="translate(17.5 18.200073)" id="Stroke-15" fill="none" fill-rule="evenodd" stroke="none" />
    <path d="M2.8 1.4C2.0279 1.4 1.4 2.0279 1.4 2.8C1.4 3.5721 2.0279 4.2 2.8 4.2C3.5721 4.2 4.2 3.5721 4.2 2.8C4.2 2.0279 3.5721 1.4 2.8 1.4M2.8 5.6C1.2558 5.6 0 4.3442 0 2.8C0 1.2558 1.2558 0 2.8 0C4.3442 0 5.6 1.2558 5.6 2.8C5.6 4.3442 4.3442 5.6 2.8 5.6" transform="translate(5.5998535 7)" id="Fill-17" fill="#FFFFFF" fill-rule="evenodd" stroke="none" />
    <path d="M2.8 1.4C2.0279 1.4 1.4 2.0279 1.4 2.8C1.4 3.5721 2.0279 4.2 2.8 4.2C3.5721 4.2 4.2 3.5721 4.2 2.8C4.2 2.0279 3.5721 1.4 2.8 1.4ZM2.8 5.6C1.2558 5.6 0 4.3442 0 2.8C0 1.2558 1.2558 0 2.8 0C4.3442 0 5.6 1.2558 5.6 2.8C5.6 4.3442 4.3442 5.6 2.8 5.6Z" transform="translate(5.5998535 7)" id="Stroke-19" fill="none" fill-rule="evenodd" stroke="none" />
    <path d="M6.7949 11.6949C6.6157 11.6949 6.4365 11.6263 6.3 11.4898L0 5.1898L0.9898 4.2L6.7949 10.0051L10.0051 6.7949L4.2 0.9898L5.1898 0L11.4898 6.3C11.7635 6.5737 11.7635 7.0161 11.4898 7.2898L7.2898 11.4898C7.1533 11.6263 6.9741 11.6949 6.7949 11.6949" transform="translate(21.90503 21.905151)" id="Fill-21" fill="#FFFFFF" fill-rule="evenodd" stroke="none" />
    <path d="M6.7949 11.6949C6.6157 11.6949 6.4365 11.6263 6.3 11.4898L0 5.1898L0.9898 4.2L6.7949 10.0051L10.0051 6.7949L4.2 0.9898L5.1898 0L11.4898 6.3C11.7635 6.5737 11.7635 7.0161 11.4898 7.2898L7.2898 11.4898C7.1533 11.6263 6.9741 11.6949 6.7949 11.6949Z" transform="translate(21.90503 21.905151)" id="Stroke-23" fill="none" fill-rule="evenodd" stroke="none" />
    <path d="M0.8967 6.7326L0 5.6567L6.7879 0L7.6846 1.0759L0.8967 6.7326Z" transform="translate(21.463623 13.462158)" id="Fill-25" fill="#FFFFFF" fill-rule="evenodd" stroke="none" />
    <path d="M0.8967 6.7326L0 5.6567L6.7879 0L7.6846 1.0759L0.8967 6.7326Z" transform="translate(21.463623 13.462158)" id="Stroke-27" fill="none" fill-rule="evenodd" stroke="none" />
    <path d="M5.0862 2.9036L0 1.3384L0.4116 0L5.4978 1.5652L5.0862 2.9036Z" transform="translate(13.000977 18.148315)" id="Fill-29" fill="#FFFFFF" fill-rule="evenodd" stroke="none" />
    <path d="M5.0862 2.9036L0 1.3384L0.4116 0L5.4978 1.5652L5.0862 2.9036Z" transform="translate(13.000977 18.148315)" id="Stroke-31" fill="none" fill-rule="evenodd" stroke="none" />
    <path d="M1.0934 6.2356L0 5.3606L4.2875 0L5.3816 0.875L1.0934 6.2356Z" transform="translate(5.053467 19.401978)" id="Fill-33" fill="#FFFFFF" fill-rule="evenodd" stroke="none" />
    <path d="M1.0934 6.2356L0 5.3606L4.2875 0L5.3816 0.875L1.0934 6.2356Z" transform="translate(5.053467 19.401978)" id="Stroke-35" fill="none" fill-rule="evenodd" stroke="none" />
    <path d="M1.12 7.5593L0 6.72L5.0407 0L6.16 0.8393L1.12 7.5593Z" transform="translate(18.199707 3.7801514)" id="Fill-37" fill="#FFFFFF" fill-rule="evenodd" stroke="none" />
    <path d="M1.12 7.5593L0 6.72L5.0407 0L6.16 0.8393L1.12 7.5593Z" transform="translate(18.199707 3.7801514)" id="Stroke-39" fill="none" fill-rule="evenodd" stroke="none" />
    <path d="M5.0862 2.9022L0 1.3384L0.4116 0L5.4978 1.5638L5.0862 2.9022Z" transform="translate(10.200928 9.749023)" id="Fill-41" fill="#FFFFFF" fill-rule="evenodd" stroke="none" />
    <path d="M5.0862 2.9022L0 1.3384L0.4116 0L5.4978 1.5638L5.0862 2.9022Z" transform="translate(10.200928 9.749023)" id="Stroke-43" fill="none" fill-rule="evenodd" stroke="none" />
    <path d="M1.2194 10.0555L0 9.3695L5.2703 0L6.4897 0.686L1.2194 10.0555Z" transform="translate(1.4902344 11.28772)" id="Fill-45" fill="#FFFFFF" fill-rule="evenodd" stroke="none" />
    <path d="M1.2194 10.0555L0 9.3695L5.2703 0L6.4897 0.686L1.2194 10.0555Z" transform="translate(1.4902344 11.28772)" id="Stroke-47" fill="none" fill-rule="evenodd" stroke="none" />
  </g>
</svg>