<svg version="1.1" id="Layer_1" xmlns="http://www.w3.org/2000/svg" x="0" y="0" viewBox="0 0 10 16" xml:space="preserve"><style>.st0{fill-rule:evenodd;clip-rule:evenodd;fill:#ddd}</style><g id="Group-2"><path id="_xD83C__xDFA8_-Icon-color" class="st0" d="M9.8 11.2l-4.5 4.5c-.2.2-.5.2-.7 0L.1 11.2c-.1-.2-.1-.5 0-.7l.4-.4c.2-.1.5-.1.7 0L5 13.9l3.8-3.8c.2-.1.5-.1.7 0l.4.4c.2.2.2.5-.1.7z"/><path id="_xD83C__xDFA8_-Icon-color_1_" class="st0" d="M9.8 4.6L5.4.1c-.2-.1-.6-.1-.8 0L.1 4.6c-.1.2-.1.6 0 .8l.4.4c.2.2.5.2.7 0L5 2l3.8 3.8c.2.2.5.2.7 0l.4-.4c.2-.2.2-.6-.1-.8z"/></g></svg>