<svg width="22" height="22" xmlns:xlink="http://www.w3.org/1999/xlink" xmlns="http://www.w3.org/2000/svg"><defs><clipPath id="b"><use xlink:href="#a"/></clipPath><path d="M0 0h16.653v16.66H0V0z" id="a"/></defs><path d="M.2 11.514C.2 9.01.199 6.506.203 4.003c.001-1.137.69-2.012 1.784-2.267.19-.044.391-.053.587-.053 2.953-.003 5.905.004 8.858-.007.59-.002.87.42.86.766a.748.748 0 01-.683.743c-.081.01-.165.007-.247.007H2.579c-.445 0-.72.175-.824.536a1.232 1.232 0 00-.037.34c-.001 4.969-.002 9.938 0 14.907 0 .573.285.862.852.863h13.401c.571 0 .862-.297.863-.879.001-2.433-.003-4.867.006-7.3.001-.194.051-.41.145-.577.15-.27.462-.365.764-.296.33.077.525.283.582.626.012.075.012.153.012.229v7.358c0 1.224-.756 2.126-1.959 2.336-.124.021-.253.02-.38.02-4.486 0-8.972.002-13.458 0-1.055 0-1.91-.585-2.22-1.544a2.813 2.813 0 01-.12-.844C.196 16.483.2 13.998.2 11.514" fill="#FFF" fill-rule="evenodd" stroke="#FFF" stroke-width=".4"/><path d="M4.698.2h16.653v16.66H4.698V.2z" fill="none"/><g clip-path="url(#b)" transform="translate(4.698 .2)"><path d="M1.952 14.707c.942-.317 1.847-.618 2.75-.928a.855.855 0 00.317-.193c3.205-3.195 6.407-6.394 9.609-9.593.08-.08.16-.165.23-.255a1.375 1.375 0 00-.266-1.937c-.58-.433-1.323-.37-1.857.163C9.498 5.2 6.262 8.437 3.028 11.675a.47.47 0 00-.12.167c-.316.94-.629 1.883-.956 2.865M13.794 0a2.89 2.89 0 012.837 3.267c-.084.69-.396 1.26-.876 1.74-3.285 3.29-6.572 6.576-9.865 9.857a1.209 1.209 0 01-.45.274c-1.454.495-2.912.978-4.368 1.467-.325.109-.617.064-.864-.182-.236-.235-.248-.52-.15-.816.49-1.476.978-2.952 1.478-4.423.053-.157.155-.312.273-.43 3.273-3.282 6.55-6.56 9.83-9.837.593-.593 1.302-.926 2.155-.917" fill="#FFF" fill-rule="evenodd" stroke="#FFF" stroke-width=".4"/></g></svg>