<svg width="35" height="35" xmlns="http://www.w3.org/2000/svg"><g fill-rule="evenodd"><path d="M15.05 1.75c-7.334 0-13.3 5.966-13.3 13.3 0 7.334 5.966 13.3 13.3 13.3 7.334 0 13.3-5.966 13.3-13.3 0-7.334-5.966-13.3-13.3-13.3m0 28c-8.105 0-14.7-6.595-14.7-14.7S6.945.35 15.05.35s14.7 6.595 14.7 14.7-6.595 14.7-14.7 14.7" fill="#FFF"/><path d="M15.05 1.75c-7.334 0-13.3 5.966-13.3 13.3 0 7.334 5.966 13.3 13.3 13.3 7.334 0 13.3-5.966 13.3-13.3 0-7.334-5.966-13.3-13.3-13.3zm0 28c-8.105 0-14.7-6.595-14.7-14.7S6.945.35 15.05.35s14.7 6.595 14.7 14.7-6.595 14.7-14.7 14.7z" fill="#41BFB0"/><path d="M17.85 11.55c-.772 0-1.4.628-1.4 1.4 0 .772.628 1.4 1.4 1.4.772 0 1.4-.628 1.4-1.4 0-.772-.628-1.4-1.4-1.4m0 4.2a2.803 2.803 0 01-2.8-2.8c0-1.544 1.256-2.8 2.8-2.8 1.544 0 2.8 1.256 2.8 2.8 0 1.544-1.256 2.8-2.8 2.8" fill="#FFF"/><path d="M17.85 11.55c-.772 0-1.4.628-1.4 1.4 0 .772.628 1.4 1.4 1.4.772 0 1.4-.628 1.4-1.4 0-.772-.628-1.4-1.4-1.4zm0 4.2a2.803 2.803 0 01-2.8-2.8c0-1.544 1.256-2.8 2.8-2.8 1.544 0 2.8 1.256 2.8 2.8 0 1.544-1.256 2.8-2.8 2.8z" fill="#41BFB0"/><path d="M11.55 17.15c-.772 0-1.4.628-1.4 1.4 0 .772.628 1.4 1.4 1.4.772 0 1.4-.628 1.4-1.4 0-.772-.628-1.4-1.4-1.4m0 4.2a2.803 2.803 0 01-2.8-2.8c0-1.544 1.256-2.8 2.8-2.8 1.544 0 2.8 1.256 2.8 2.8 0 1.544-1.256 2.8-2.8 2.8" fill="#FFF"/><path d="M11.55 17.15c-.772 0-1.4.628-1.4 1.4 0 .772.628 1.4 1.4 1.4.772 0 1.4-.628 1.4-1.4 0-.772-.628-1.4-1.4-1.4zm0 4.2a2.803 2.803 0 01-2.8-2.8c0-1.544 1.256-2.8 2.8-2.8 1.544 0 2.8 1.256 2.8 2.8 0 1.544-1.256 2.8-2.8 2.8z" fill="#41BFB0"/><path d="M20.65 19.95c-.772 0-1.4.628-1.4 1.4 0 .772.628 1.4 1.4 1.4.772 0 1.4-.628 1.4-1.4 0-.772-.628-1.4-1.4-1.4m0 4.2a2.803 2.803 0 01-2.8-2.8c0-1.544 1.256-2.8 2.8-2.8 1.544 0 2.8 1.256 2.8 2.8 0 1.544-1.256 2.8-2.8 2.8" fill="#FFF"/><path d="M20.65 19.95c-.772 0-1.4.628-1.4 1.4 0 .772.628 1.4 1.4 1.4.772 0 1.4-.628 1.4-1.4 0-.772-.628-1.4-1.4-1.4zm0 4.2a2.803 2.803 0 01-2.8-2.8c0-1.544 1.256-2.8 2.8-2.8 1.544 0 2.8 1.256 2.8 2.8 0 1.544-1.256 2.8-2.8 2.8z" fill="#41BFB0"/><path d="M8.75 8.75c-.772 0-1.4.628-1.4 1.4 0 .772.628 1.4 1.4 1.4.772 0 1.4-.628 1.4-1.4 0-.772-.628-1.4-1.4-1.4m0 4.2a2.803 2.803 0 01-2.8-2.8c0-1.544 1.256-2.8 2.8-2.8 1.544 0 2.8 1.256 2.8 2.8 0 1.544-1.256 2.8-2.8 2.8" fill="#FFF"/><path d="M8.75 8.75c-.772 0-1.4.628-1.4 1.4 0 .772.628 1.4 1.4 1.4.772 0 1.4-.628 1.4-1.4 0-.772-.628-1.4-1.4-1.4zm0 4.2a2.803 2.803 0 01-2.8-2.8c0-1.544 1.256-2.8 2.8-2.8 1.544 0 2.8 1.256 2.8 2.8 0 1.544-1.256 2.8-2.8 2.8z" fill="#41BFB0"/><path d="M29.05 33.95a.698.698 0 01-.495-.205l-6.3-6.3.99-.99 5.805 5.805 3.21-3.21-5.805-5.805.99-.99 6.3 6.3a.7.7 0 010 .99l-4.2 4.2a.698.698 0 01-.495.205" fill="#FFF"/><path d="M29.05 33.95a.698.698 0 01-.495-.205l-6.3-6.3.99-.99 5.805 5.805 3.21-3.21-5.805-5.805.99-.99 6.3 6.3a.7.7 0 010 .99l-4.2 4.2a.698.698 0 01-.495.205z" fill="#41BFB0"/><path d="M22.71 20.545l-.896-1.076 6.788-5.657.896 1.076-6.788 5.657z" fill="#FFF"/><path d="M22.71 20.545l-.896-1.076 6.788-5.657.896 1.076-6.788 5.657z" fill="#41BFB0"/><path d="M18.437 21.402l-5.086-1.565.412-1.339 5.086 1.565-.412 1.339z" fill="#FFF"/><path d="M18.437 21.402l-5.086-1.565.412-1.339 5.086 1.565-.412 1.339z" fill="#41BFB0"/><path d="M6.497 25.988l-1.093-.875 4.287-5.361 1.094.875-4.288 5.36z" fill="#FFF"/><path d="M6.497 25.988l-1.093-.875 4.287-5.361 1.094.875-4.288 5.36z" fill="#41BFB0"/><path d="M19.67 11.69l-1.12-.84 5.04-6.72 1.12.84-5.04 6.72z" fill="#FFF"/><path d="M19.67 11.69l-1.12-.84 5.04-6.72 1.12.84-5.04 6.72z" fill="#41BFB0"/><path d="M15.637 13.001l-5.086-1.564.412-1.338 5.086 1.564L15.637 13z" fill="#FFF"/><path d="M15.637 13.001l-5.086-1.564.412-1.338 5.086 1.564L15.637 13z" fill="#41BFB0"/><path d="M3.06 21.693l-1.22-.686 5.27-9.37 1.22.687-5.27 9.37z" fill="#FFF"/><path d="M3.06 21.693l-1.22-.686 5.27-9.37 1.22.687-5.27 9.37z" fill="#41BFB0"/></g></svg>