<svg width="21" height="24" xmlns:xlink="http://www.w3.org/1999/xlink" xmlns="http://www.w3.org/2000/svg"><defs><clipPath id="b"><use xlink:href="#a"/></clipPath><path d="M0 0h19.542v23.142H0V0z" id="a"/></defs><path d="M.25.25h19.542v23.142H.25V.25z" fill="none"/><g clip-path="url(#b)" transform="translate(.25 .25)"><path d="M9.77 21.056a45.101 45.101 0 003.539-3.521c1.315-1.463 2.547-2.987 3.504-4.719.729-1.32 1.14-2.69.87-4.221-.304-1.727-1-3.255-2.263-4.473-1.915-1.846-4.208-2.623-6.86-2.24-1.768.257-3.271 1.056-4.519 2.319C2.87 5.388 2.176 6.83 1.886 8.47c-.179 1.008-.152 1.999.215 2.97.407 1.076.982 2.059 1.637 2.996 1.433 2.05 3.14 3.863 4.927 5.603.353.344.726.668 1.105 1.016M9.41 0c3.042.042 5.357.969 7.251 2.847 1.546 1.534 2.47 3.401 2.798 5.57.263 1.741-.115 3.341-.906 4.877-1.137 2.208-2.677 4.125-4.373 5.91-1.209 1.272-2.514 2.453-3.785 3.664-.382.364-.84.358-1.229.02-1.998-1.738-3.864-3.606-5.538-5.662-1.05-1.29-2.009-2.645-2.747-4.142C.135 11.572-.177 9.993.1 8.301c.345-2.104 1.26-3.91 2.744-5.42A9.307 9.307 0 017.577.264C8.298.108 9.04.05 9.41 0" fill="#FFF" fill-rule="evenodd" stroke="#FFF" stroke-width=".5"/></g><path d="M7.358 9.122c-.007 1.473 1.167 2.68 2.615 2.69a2.676 2.676 0 002.721-2.664c.014-1.442-1.19-2.653-2.648-2.664a2.656 2.656 0 00-2.688 2.638m2.655-4.426c2.432-.014 4.438 1.978 4.455 4.424a4.434 4.434 0 01-4.403 4.464c-2.5.01-4.494-1.961-4.496-4.448-.002-2.43 1.996-4.426 4.444-4.44" fill="#FFF" fill-rule="evenodd" stroke="#FFF" stroke-width=".5"/></svg>