<?xml version="1.0" encoding="utf-8"?>
<svg width="22px" height="22px" viewbox="0 0 22 22" version="1.1" xmlns:xlink="http://www.w3.org/1999/xlink" xmlns="http://www.w3.org/2000/svg">
  <defs>
    <path d="M0 0L16.653 0L16.653 16.6605L0 16.6605L0 0Z" transform="translate(0.082006745 0.05987234)" id="path_1" />
    <clipPath id="mask_1">
      <use xlink:href="#path_1" />
    </clipPath>
  </defs>
  <g id="Group-6" transform="translate(0.19995117 0.2000122)">
    <path d="M0.000810929 9.83759C0.000810929 7.33398 -0.00150739 4.83028 0.00197009 2.32658C0.00348592 1.19035 0.692741 0.314712 1.78628 0.0598241C1.97602 0.0156317 2.17745 0.00741816 2.37344 0.00723961C5.32591 0.00402562 8.27847 0.0109893 11.2309 8.12763e-06C11.8204 -0.00213453 12.1007 0.419791 12.091 0.766456C12.0801 1.15928 11.8094 1.46211 11.4084 1.5088C11.3266 1.51835 11.2432 1.51585 11.1606 1.51594C8.23353 1.51621 5.30647 1.51594 2.37941 1.51639C1.93438 1.51648 1.65957 1.69093 1.5548 2.05214C1.5235 2.1599 1.51824 2.27828 1.51824 2.39175C1.51655 7.36085 1.51637 12.33 1.51717 17.2991C1.51726 17.8717 1.80313 18.1613 2.3704 18.1615C6.83737 18.1625 11.3043 18.1625 15.7713 18.1615C16.342 18.1614 16.6334 17.8645 16.6338 17.2834C16.6351 14.8499 16.6312 12.4163 16.6405 9.98276C16.6413 9.78858 16.691 9.57342 16.7848 9.40549C16.9356 9.13569 17.2474 9.04052 17.5486 9.11007C17.8796 9.18658 18.0737 9.39299 18.1307 9.73635C18.1432 9.81117 18.1432 9.88857 18.1432 9.96481C18.1438 12.4175 18.1445 14.8703 18.1434 17.323C18.1428 18.5469 17.3866 19.4486 16.1841 19.6585C16.0599 19.6803 15.9306 19.6789 15.8037 19.6789C11.3176 19.6799 6.83166 19.6807 2.34562 19.679C1.29123 19.6787 0.43621 19.0936 0.126179 18.1354C0.0398658 17.8685 0.0069634 17.5736 0.00598257 17.2913C-0.00302322 14.8068 0.000810929 12.3222 0.000810929 9.83759" transform="translate(0 1.5360107)" id="Fill-1" fill="#452B78" fill-rule="evenodd" stroke="#FFFFFF" stroke-width="0.4" />
    <g id="Group-5" transform="translate(4.4160156 0)">
      <path d="M0 0L16.653 0L16.653 16.6605L0 16.6605L0 0Z" transform="translate(0.082006745 0.05987234)" id="Clip-4" fill="none" fill-rule="evenodd" stroke="none" />
      <g clip-path="url(#mask_1)">
        <path d="M1.95194 14.7067C2.89452 14.39 3.79949 14.0891 4.70142 13.7792C4.81634 13.7397 4.93313 13.6713 5.01883 13.5859C8.22415 10.3906 11.426 7.19186 14.6276 3.99289C14.7086 3.91201 14.7882 3.82828 14.8582 3.73794C15.3253 3.13457 15.2035 2.25569 14.5923 1.80084C14.0112 1.36842 13.2687 1.43053 12.7349 1.9642C9.49809 5.20007 6.26248 8.4372 3.02767 11.675C2.97969 11.723 2.92982 11.7801 2.90882 11.8424C2.59159 12.7829 2.279 13.7249 1.95194 14.7067M13.7936 0.000204021C15.5339 0.0213827 16.8418 1.53383 16.6307 3.26682C16.5467 3.9566 16.2349 4.52709 15.755 5.00759C12.4705 8.2969 9.18255 11.5826 5.89029 14.8641C5.76875 14.9853 5.60272 15.0821 5.43946 15.1378C3.98599 15.6333 2.52832 16.1165 1.07235 16.6047C0.747341 16.7136 0.455129 16.6685 0.208401 16.4234C-0.0282289 16.1883 -0.0402927 15.9031 0.0580052 15.6066C0.547082 14.1311 1.03598 12.6554 1.53587 11.1836C1.58904 11.027 1.69127 10.8722 1.80869 10.7544C5.08201 7.47209 8.35953 4.19386 11.6383 0.916966C12.2319 0.323693 12.9409 -0.00944704 13.7936 0.000204021" transform="translate(0.082006745 0.05985598)" id="Fill-3" fill="#452B78" fill-rule="evenodd" stroke="#FFFFFF" stroke-width="0.4" />
      </g>
    </g>
  </g>
</svg>