<svg width="27" height="24" xmlns:xlink="http://www.w3.org/1999/xlink" xmlns="http://www.w3.org/2000/svg"><defs><clipPath id="d"><use xlink:href="#a"/></clipPath><clipPath id="e"><use xlink:href="#b"/></clipPath><clipPath id="f"><use xlink:href="#c"/></clipPath><path d="M0 0h26.168v12.749H0V0z" id="a"/><path d="M0 0h22.959v11.558H0V0z" id="b"/><path d="M0 0h22.958v11.529H0V0z" id="c"/></defs><path d="M.25 5.362h26.168V18.11H.25V5.362z" fill="none"/><g clip-path="url(#d)" transform="translate(.25 5.362)"><path d="M16.663 8.548a.788.788 0 00-.809.775.8.8 0 00.798.812.816.816 0 00.79-.782.787.787 0 00-.78-.805M2.378 11.143c.444 0 .792-.332.792-.757 0-.443-.369-.822-.797-.82a.778.778 0 00-.787.793.77.77 0 00.792.784M9.49 6.008a.786.786 0 00.803-.78.79.79 0 00-.783-.802.793.793 0 00-.804.784.784.784 0 00.784.798m15.072-3.64a.792.792 0 00-.782-.803.807.807 0 00-.802.79.794.794 0 00.788.797.78.78 0 00.796-.783M2.48 8.033c.333-.007.722.08 1.069.301.138.09.226.062.346-.025a434.316 434.316 0 013.181-2.31c.126-.09.154-.17.124-.32C7 4.67 7.426 3.71 8.28 3.198c.87-.518 1.915-.457 2.702.193.65.537.95 1.238.852 2.087-.016.138.02.205.137.271.992.564 1.981 1.13 2.966 1.706.138.08.223.063.345-.026.692-.501 1.443-.582 2.234-.27.12.047.188.037.279-.053a948.393 948.393 0 013.706-3.623c.1-.097.106-.173.06-.299-.43-1.195.096-2.438 1.25-2.977 1.083-.505 2.434-.06 3.049 1.004.871 1.507-.216 3.46-1.96 3.49-.337.007-.676-.115-1.015-.165-.076-.012-.186-.002-.235.046a580.932 580.932 0 00-3.75 3.675c-.05.05-.064.182-.037.256a2.377 2.377 0 01-1.849 3.164c-1.501.254-2.903-1.083-2.703-2.587.02-.15-.026-.218-.15-.288a299.67 299.67 0 01-2.945-1.694c-.133-.078-.217-.076-.344.015-.817.578-1.671.61-2.544.13-.11-.06-.183-.065-.287.01-1.09.794-2.187 1.58-3.276 2.377-.06.044-.11.17-.092.24.29 1.152-.404 2.284-1.435 2.698-1.065.426-2.262.032-2.88-.976-.468-.765-.472-1.568-.05-2.355.414-.772 1.226-1.229 2.17-1.215" fill="#FFF" fill-rule="evenodd" stroke="#FFF" stroke-width=".5"/></g><path d="M1.889.25h22.958v11.558H1.89V.25z" fill="none"/><g clip-path="url(#e)" transform="translate(1.889 .25)"><path d="M22.939 3.56h-1.533v-.533c-.005-.946-.528-1.471-1.477-1.472L3.044 1.554c-.58 0-1.083.163-1.331.725a2.057 2.057 0 00-.147.805c-.01 2.743-.006 5.486-.006 8.229v.245H.013c-.003-.042-.011-.108-.011-.174 0-2.82-.005-5.64.001-8.46C.006 1.42.971.288 2.459.031c.173-.03.353-.03.53-.03 5.666 0 11.333-.002 16.999 0 1.549 0 2.697.947 2.942 2.452.06.365.009.748.009 1.107" fill="#FFF" fill-rule="evenodd" stroke="#FFF" stroke-width=".5"/></g><path d="M1.898 11.67h22.957V23.2H1.898V11.67z" fill="none"/><g clip-path="url(#f)" transform="translate(1.898 11.67)"><path d="M.02 7.954h1.544c0 .242-.019.503.004.761.067.754.558 1.21 1.318 1.244.054.002.108.001.162.001h16.887c.748 0 1.261-.347 1.435-.987a1.94 1.94 0 00.05-.502c.002-2.688.001-5.377.001-8.066 0-.407.027-.42.428-.4.359.019.72.004 1.1.004.001.038.007.113.007.187 0 2.797.004 5.593 0 8.39-.003 1.443-.902 2.569-2.29 2.873a3.128 3.128 0 01-.665.067c-5.682.003-11.365.004-17.048.001-1.514 0-2.682-.972-2.924-2.455-.06-.365-.009-.749-.009-1.118" fill="#FFF" fill-rule="evenodd" stroke="#FFF" stroke-width=".5"/></g></svg>