<svg width="23" height="23" xmlns:xlink="http://www.w3.org/1999/xlink" xmlns="http://www.w3.org/2000/svg"><defs><clipPath id="b"><use xlink:href="#a"/></clipPath><path d="M0 0h21.04v21.044H0V0z" transform="translate(0 .076)" id="a"/></defs><path d="M.2.276h21.04V21.32H.2V.276z" fill="none"/><g clip-path="url(#b)" transform="translate(.2 .2)"><path d="M3.51 5.333h1.023c.51 0 1.02.003 1.53 0 .772-.005 1.155.763.798 1.338-.184.298-.468.417-.813.416-1.414-.002-2.828 0-4.242 0-.025 0-.05 0-.074-.002-.508-.021-.863-.379-.864-.89-.004-1.45-.004-2.9 0-4.352.001-.512.368-.884.86-.886a.859.859 0 01.882.868c.01.584.002 1.168.002 1.787.055-.046.093-.07.122-.102A10.369 10.369 0 017.67.46a10.394 10.394 0 013.576-.357 10.28 10.28 0 015.36 1.92c2.06 1.474 3.435 3.443 4.072 5.899.693 2.673.394 5.251-.927 7.677-1.454 2.668-3.675 4.42-6.619 5.164-3.322.84-6.384.191-9.099-1.9C1.877 17.202.6 14.983.143 12.301a12.223 12.223 0 01-.142-1.65c-.021-.639.522-1.06 1.113-.898.394.107.64.448.638.926-.003.768.111 1.52.318 2.255a8.625 8.625 0 002.7 4.268c1.262 1.094 2.713 1.8 4.366 2.038 2.922.42 5.466-.398 7.576-2.465 1.388-1.36 2.228-3.032 2.474-4.956.37-2.879-.463-5.393-2.518-7.455-1.445-1.45-3.215-2.299-5.261-2.478-3.175-.278-5.777.843-7.795 3.312-.026.031-.05.065-.102.135" fill="#452B78" fill-rule="evenodd" stroke="#FFF" stroke-width=".4"/></g><path d="M11.556 9.958h3.407c.335.001.633.09.833.386a.872.872 0 01-.536 1.336 1.654 1.654 0 01-.366.038c-1.354.002-2.708.003-4.062 0-.524 0-.86-.216-.987-.637a1.082 1.082 0 01-.043-.308c-.002-1.713-.003-3.426 0-5.14 0-.648.537-1.06 1.144-.878.34.101.53.343.592.685.018.095.017.195.017.293v4.225z" fill="#452B78" fill-rule="evenodd" stroke="#FFF" stroke-width=".4"/></svg>