<?xml version="1.0" encoding="utf-8"?>
<svg width="10px" height="16px" viewbox="0 0 10 16" version="1.1" xmlns:xlink="http://www.w3.org/1999/xlink" xmlns="http://www.w3.org/2000/svg">
  <g id="Group-2-Copy" transform="matrix(-1 8.742278E-08 -8.742278E-08 -1 10 15.872925)">
    <path d="M9.8499 4.63849L5.36159 0.149729C5.16176 -0.0499098 4.8381 -0.0499098 4.6385 0.149729L0.149705 4.63849C-0.0499017 4.83819 -0.0499017 5.16182 0.149705 5.36152L0.511238 5.72305C0.710845 5.92289 1.03479 5.92289 1.23453 5.72305L5 1.95739L8.76559 5.72305C8.96517 5.92289 9.28895 5.92289 9.48862 5.72305L9.85016 5.36152C10.05 5.16159 10.05 4.83819 9.8499 4.63849Z" transform="matrix(1 0 0 -1 0 15.872925)" id="🎨-Icon-color" fill="#45B374" fill-rule="evenodd" stroke="none" />
    <path d="M9.8499 4.63849L5.36159 0.149729C5.16176 -0.0499098 4.8381 -0.0499098 4.6385 0.149729L0.149705 4.63849C-0.0499017 4.83819 -0.0499017 5.16182 0.149705 5.36152L0.511238 5.72305C0.710845 5.92289 1.03479 5.92289 1.23453 5.72305L5 1.95739L8.76559 5.72305C8.96517 5.92289 9.28895 5.92289 9.48862 5.72305L9.85016 5.36152C10.05 5.16159 10.05 4.83819 9.8499 4.63849Z" id="🎨-Icon-color" fill="#B6B6B6" fill-rule="evenodd" stroke="none" />
  </g>
</svg>