<svg width="22" height="22" xmlns:xlink="http://www.w3.org/1999/xlink" xmlns="http://www.w3.org/2000/svg"><defs><clipPath id="b"><use xlink:href="#a"/></clipPath><path d="M0 0h21.04v21.044H0V0z" id="a"/></defs><path d="M.2.2h21.04v21.044H.2V.2z" fill="none"/><g clip-path="url(#b)" transform="translate(.2 .2)"><path d="M3.51 5.257h1.023c.51 0 1.02.003 1.53 0 .773-.005 1.155.763.798 1.339-.184.298-.468.416-.813.416C4.634 7.01 3.22 7.01 1.806 7.01l-.074-.001c-.508-.022-.863-.38-.864-.89-.004-1.45-.004-2.901 0-4.352.001-.512.369-.884.86-.887a.859.859 0 01.882.869c.01.583.002 1.167.002 1.786.055-.045.093-.07.122-.101A10.369 10.369 0 017.67.385a10.394 10.394 0 013.576-.358c1.968.139 3.76.775 5.36 1.92 2.06 1.475 3.435 3.444 4.072 5.9.693 2.673.394 5.25-.927 7.676-1.454 2.669-3.675 4.42-6.619 5.165-3.322.84-6.384.19-9.099-1.9C1.877 17.126.6 14.907.144 12.225A12.223 12.223 0 010 10.575c-.021-.638.522-1.059 1.113-.898.394.107.64.448.638.926-.003.768.111 1.52.319 2.255a8.625 8.625 0 002.699 4.269c1.262 1.093 2.713 1.8 4.366 2.038 2.922.42 5.466-.399 7.576-2.466 1.388-1.359 2.228-3.031 2.474-4.956.37-2.878-.463-5.392-2.518-7.454-1.445-1.451-3.215-2.3-5.261-2.478-3.175-.278-5.777.842-7.795 3.311-.026.032-.05.065-.102.135" fill="#FFF" fill-rule="evenodd" stroke="#FFF" stroke-width=".4"/></g><path d="M11.556 9.882h3.407c.335.002.633.09.833.386a.872.872 0 01-.536 1.336 1.654 1.654 0 01-.366.038c-1.354.003-2.708.003-4.062.001-.524 0-.86-.217-.987-.638a1.082 1.082 0 01-.043-.308c-.002-1.713-.003-3.426 0-5.139 0-.649.537-1.06 1.144-.879.34.102.53.343.592.685.018.096.017.195.017.293v4.225z" fill="#FFF" fill-rule="evenodd" stroke="#FFF" stroke-width=".4"/></svg>