<?xml version="1.0" encoding="utf-8"?>
<svg width="5px" height="17px" viewbox="0 0 5 17" version="1.1" xmlns:xlink="http://www.w3.org/1999/xlink" xmlns="http://www.w3.org/2000/svg">
  <g id="Group-9" transform="translate(0.5 0.5)">
    <path d="M0.000901841 1.9457C0.0347018 0.842004 0.949002 -0.0385957 2.0198 0.00130432C3.1274 0.0425043 3.9981 0.955704 3.9542 2.0299C3.9094 3.1285 3.0143 3.9908 1.9483 3.9625C0.844702 3.9331 -0.0320982 3.0251 0.000901841 1.9457" transform="translate(0.0012207031 5.922653)" id="Fill-1" fill="#FFFFFF" fill-rule="evenodd" stroke="#452B78" stroke-width="1" />
    <path d="M1.9802 5.45702e-07C3.0819 0.000700546 3.9614 0.881701 3.958 1.981C3.9546 3.0734 3.0571 3.9625 1.9654 3.9549C0.882901 3.9473 0.00120103 3.0605 1.03071e-06 1.9785C-0.00109897 0.878101 0.878401 -0.000799454 1.9802 5.45702e-07" transform="translate(0.00012207031 0)" id="Fill-3" fill="none" fill-rule="evenodd" stroke="#452B78" stroke-width="1" />
    <path d="M1.96812 3.95505C0.867621 3.94865 -0.0118787 3.05885 0.000121349 1.96435C0.0122214 0.868646 0.911121 -0.0130537 2.00262 0.000146302C3.08442 0.0133463 3.96532 0.907946 3.95802 1.98635C3.95072 3.09135 3.07112 3.96145 1.96812 3.95505" transform="translate(0 11.853439)" id="Fill-6" fill="#FFFFFF" fill-rule="evenodd" stroke="#452B78" stroke-width="1" />
  </g>
</svg>