<svg width="21" height="25" xmlns:xlink="http://www.w3.org/1999/xlink" xmlns="http://www.w3.org/2000/svg"><defs><clipPath id="b"><use xlink:href="#a"/></clipPath><path d="M0 0h19.542v23.142H0V0z" transform="translate(0 .09)" id="a"/></defs><path d="M.25.34h19.542v23.142H.25V.34z" fill="none"/><g clip-path="url(#b)" transform="translate(.25 .25)"><path d="M9.77 21.147a45.119 45.119 0 003.539-3.522c1.315-1.463 2.547-2.987 3.504-4.718.729-1.32 1.14-2.69.87-4.222-.304-1.726-1-3.255-2.263-4.473-1.914-1.845-4.208-2.622-6.86-2.239-1.768.256-3.271 1.055-4.519 2.318C2.87 5.478 2.176 6.922 1.886 8.562c-.179 1.008-.152 1.998.215 2.97.407 1.075.982 2.058 1.637 2.995 1.433 2.051 3.14 3.864 4.927 5.603.353.344.726.669 1.105 1.017M9.41.09c3.042.042 5.357.969 7.251 2.848 1.546 1.533 2.47 3.4 2.798 5.57.263 1.74-.115 3.34-.906 4.877-1.137 2.208-2.677 4.124-4.373 5.91-1.209 1.272-2.514 2.452-3.785 3.664-.382.364-.84.358-1.229.02-1.998-1.739-3.864-3.607-5.538-5.662-1.05-1.292-2.008-2.646-2.747-4.143C.135 11.662-.177 10.084.1 8.392.445 6.288 1.36 4.48 2.844 2.97A9.307 9.307 0 017.577.355C8.298.198 9.04.142 9.41.09" fill="#452B78" fill-rule="evenodd" stroke="#FFF" stroke-width=".5"/></g><path d="M7.358 9.212c-.007 1.473 1.167 2.68 2.615 2.69a2.676 2.676 0 002.721-2.664c.014-1.441-1.19-2.652-2.648-2.663a2.656 2.656 0 00-2.688 2.637m2.655-4.425c2.432-.014 4.438 1.978 4.455 4.423.017 2.448-1.96 4.454-4.403 4.464-2.5.01-4.494-1.96-4.496-4.447-.002-2.43 1.996-4.427 4.444-4.44" fill="#452B78" fill-rule="evenodd" stroke="#FFF" stroke-width=".5"/></svg>