<?xml version="1.0" encoding="utf-8"?>
<svg width="29px" height="34px" viewbox="0 0 29 34" version="1.1" xmlns:xlink="http://www.w3.org/1999/xlink" xmlns="http://www.w3.org/2000/svg">
  <g id="Group-53">
    <g id="Group-52">
      <path d="M14.7 31.5L14.7 30.1C18.1741 30.1 21 27.2741 21 23.8L21 9.1C21 4.8545 17.5455 1.4 13.3 1.4L9.1 1.4C4.8545 1.4 1.4 4.8545 1.4 9.1L1.4 22.4L0 22.4L0 9.1C0 4.0824 4.0824 0 9.1 0L13.3 0C18.3176 0 22.4 4.0824 22.4 9.1L22.4 23.8C22.4 28.0455 18.9462 31.5 14.7 31.5" id="Fill-1" fill="#FFFFFF" fill-rule="evenodd" stroke="none" />
      <path d="M1.3999 11.2L2.0999 11.2C4.0298 11.2 5.5999 9.62992 5.5999 7.70002L5.5999 4.90002C5.5999 2.97012 4.0298 1.40002 2.0999 1.40002L1.3999 1.40002L1.3999 11.2ZM2.1 12.6L0.7 12.6C0.3129 12.6 0 12.2871 0 11.9L0 0.7C0 0.3129 0.3129 0 0.7 0L2.1 0C4.8013 0 7 2.1987 7 4.9L7 7.7C7 10.4013 4.8013 12.6 2.1 12.6L2.1 12.6Z" transform="translate(21.000244 10.5)" id="Fill-5" fill="#FFFFFF" fill-rule="evenodd" stroke="none" />
      <path d="M2.7999 1.40002C2.0278 1.40002 1.3999 2.02792 1.3999 2.80002C1.3999 3.57212 2.0278 4.20002 2.7999 4.20002L5.5999 4.20002C6.372 4.20002 6.9999 3.57212 6.9999 2.80002C6.9999 2.02792 6.372 1.40002 5.5999 1.40002L2.7999 1.40002ZM5.6 5.6L2.8 5.6C1.2558 5.6 0 4.3442 0 2.8C0 1.2558 1.2558 0 2.8 0L5.6 0C7.1442 0 8.4 1.2558 8.4 2.8C8.4 4.3442 7.1442 5.6 5.6 5.6L5.6 5.6Z" transform="translate(7 28)" id="Fill-9" fill="#FFFFFF" fill-rule="evenodd" stroke="none" />
      <path d="M1.3999 8.40002L3.4999 8.40002C3.7127 8.40002 3.9136 8.49662 4.0466 8.66253L6.2999 11.4793L8.5532 8.66253C8.6862 8.49662 8.8871 8.40002 9.0999 8.40002L11.1999 8.40002L11.1999 1.40002L1.3999 1.40002L1.3999 8.40002ZM6.3 13.3C6.0872 13.3 5.8863 13.2034 5.7533 13.0375L3.164 9.8L0.7 9.8C0.3129 9.8 0 9.4871 0 9.1L0 0.7C0 0.3129 0.3129 0 0.7 0L11.9 0C12.2871 0 12.6 0.3129 12.6 0.7L12.6 9.1C12.6 9.4871 12.2871 9.8 11.9 9.8L9.436 9.8L6.8467 13.0375C6.7137 13.2034 6.5128 13.3 6.3 13.3L6.3 13.3Z" transform="translate(4.8999023 11.900024)" id="Fill-13" fill="#FFFFFF" fill-rule="evenodd" stroke="none" />
      <path d="M0 1.4L1.4 1.4L1.4 0L0 0L0 1.4Z" transform="translate(10.5 16.099976)" id="Fill-21" fill="#FFFFFF" fill-rule="evenodd" stroke="none" />
      <path d="M0 1.4L1.4 1.4L1.4 0L0 0L0 1.4Z" transform="translate(7.699951 16.099976)" id="Fill-24" fill="#FFFFFF" fill-rule="evenodd" stroke="none" />
      <path d="M0 1.4L1.4 1.4L1.4 0L0 0L0 1.4Z" transform="translate(13.300049 16.099976)" id="Fill-26" fill="#FFFFFF" fill-rule="evenodd" stroke="none" />
    </g>
  </g>
</svg>