<svg width="35" height="36" xmlns:xlink="http://www.w3.org/1999/xlink" xmlns="http://www.w3.org/2000/svg"><defs><clipPath id="c"><use xlink:href="#a"/></clipPath><filter id="b"><feColorMatrix in="SourceGraphic" values="0 0 0 0 1 0 0 0 0 1 0 0 0 0 1 0 0 0 1 0"/></filter><path d="M0 34.304h34.3V.004H0v34.3z" id="a"/></defs><g transform="translate(.35 .35)" filter="url(#b)"><path d="M23.45 33.954h-21c-1.158 0-2.1-.942-2.1-2.1v-29.4c0-1.158.942-2.1 2.1-2.1h21c1.158 0 2.1.942 2.1 2.1v8.4h-1.4v-8.4a.7.7 0 00-.7-.7h-21a.7.7 0 00-.7.7v29.4a.7.7 0 00.7.7h21a.7.7 0 00.7-.7v-2.8h1.4v2.8c0 1.158-.942 2.1-2.1 2.1" fill="#41BFB0" fill-rule="evenodd"/><path d="M23.45 33.954h-21c-1.158 0-2.1-.942-2.1-2.1v-29.4c0-1.158.942-2.1 2.1-2.1h21c1.158 0 2.1.942 2.1 2.1v8.4h-1.4v-8.4a.7.7 0 00-.7-.7h-21a.7.7 0 00-.7.7v29.4a.7.7 0 00.7.7h21a.7.7 0 00.7-.7v-2.8h1.4v2.8c0 1.158-.942 2.1-2.1 2.1z" fill="none"/><path d="M7.35 1.754v2.1a.7.7 0 00.7.7h9.8a.7.7 0 00.7-.7v-2.1H7.35zm10.5 4.2h-9.8c-1.158 0-2.1-.942-2.1-2.1v-2.8a.7.7 0 01.7-.7h12.6a.7.7 0 01.7.7v2.8c0 1.158-.942 2.1-2.1 2.1z" fill="#41BFB0" fill-rule="evenodd"/><path d="M7.35 1.754v2.1a.7.7 0 00.7.7h9.8a.7.7 0 00.7-.7v-2.1H7.35zm10.5 4.2h-9.8c-1.158 0-2.1-.942-2.1-2.1v-2.8a.7.7 0 01.7-.7h12.6a.7.7 0 01.7.7v2.8c0 1.158-.942 2.1-2.1 2.1z" fill="none"/><path d="M24.15 29.754c-5.404 0-9.8-4.396-9.8-9.8 0-5.404 4.396-9.8 9.8-9.8a9.77 9.77 0 016.662 2.612l-.952 1.027a8.373 8.373 0 00-5.71-2.239c-4.632 0-8.4 3.768-8.4 8.4 0 4.632 3.768 8.4 8.4 8.4 4.632 0 8.4-3.768 8.4-8.4a8.35 8.35 0 00-.052-.936l1.392-.154c.04.36.06.727.06 1.09 0 5.404-4.396 9.8-9.8 9.8" fill="#41BFB0" fill-rule="evenodd"/><path d="M24.15 29.754c-5.404 0-9.8-4.396-9.8-9.8 0-5.404 4.396-9.8 9.8-9.8a9.77 9.77 0 016.662 2.612l-.952 1.027a8.373 8.373 0 00-5.71-2.239c-4.632 0-8.4 3.768-8.4 8.4 0 4.632 3.768 8.4 8.4 8.4 4.632 0 8.4-3.768 8.4-8.4a8.35 8.35 0 00-.052-.936l1.392-.154c.04.36.06.727.06 1.09 0 5.404-4.396 9.8-9.8 9.8z" fill="none"/><path d="M0 34.304h34.3V.004H0v34.3z" fill="none"/><g clip-path="url(#c)"><path d="M10.15 9.454h5.6v-1.4h-5.6v1.4z" fill="#41BFB0" fill-rule="evenodd"/><path d="M10.15 9.454h5.6v-1.4h-5.6v1.4z" fill="none"/><path d="M8.05 12.954h7.7v-1.4h-7.7v1.4z" fill="#41BFB0" fill-rule="evenodd"/><path d="M8.05 12.954h7.7v-1.4h-7.7v1.4z" fill="none"/><path d="M3.85 12.954h2.1v-1.4h-2.1v1.4z" fill="#41BFB0" fill-rule="evenodd"/><path d="M3.85 12.954h2.1v-1.4h-2.1v1.4z" fill="none"/><path d="M8.05 16.454h4.9v-1.4h-4.9v1.4z" fill="#41BFB0" fill-rule="evenodd"/><path d="M8.05 16.454h4.9v-1.4h-4.9v1.4z" fill="none"/><path d="M3.85 16.454h2.1v-1.4h-2.1v1.4z" fill="#41BFB0" fill-rule="evenodd"/><path d="M3.85 16.454h2.1v-1.4h-2.1v1.4z" fill="none"/><path d="M8.05 19.954h4.9v-1.4h-4.9v1.4z" fill="#41BFB0" fill-rule="evenodd"/><path d="M8.05 19.954h4.9v-1.4h-4.9v1.4z" fill="none"/><path d="M3.85 19.954h2.1v-1.4h-2.1v1.4z" fill="#41BFB0" fill-rule="evenodd"/><path d="M3.85 19.954h2.1v-1.4h-2.1v1.4z" fill="none"/><path d="M8.05 23.454h4.9v-1.4h-4.9v1.4z" fill="#41BFB0" fill-rule="evenodd"/><path d="M8.05 23.454h4.9v-1.4h-4.9v1.4z" fill="none"/><path d="M3.85 23.454h2.1v-1.4h-2.1v1.4z" fill="#41BFB0" fill-rule="evenodd"/><path d="M3.85 23.454h2.1v-1.4h-2.1v1.4z" fill="none"/><path d="M8.05 26.954h6.3v-1.4h-6.3v1.4z" fill="#41BFB0" fill-rule="evenodd"/><path d="M8.05 26.954h6.3v-1.4h-6.3v1.4z" fill="none"/><path d="M3.85 26.954h2.1v-1.4h-2.1v1.4z" fill="#41BFB0" fill-rule="evenodd"/><path d="M3.85 26.954h2.1v-1.4h-2.1v1.4z" fill="none"/><path d="M22.75 25.554a.698.698 0 01-.495-.205l-4.2-4.2.99-.99 3.705 3.705L32.755 13.86l.99.99-10.5 10.5a.698.698 0 01-.495.205" fill="#41BFB0" fill-rule="evenodd"/><path d="M22.75 25.554a.698.698 0 01-.495-.205l-4.2-4.2.99-.99 3.705 3.705L32.755 13.86l.99.99-10.5 10.5a.698.698 0 01-.495.205z" fill="none"/></g></g></svg>