<svg width="28" height="24" xmlns:xlink="http://www.w3.org/1999/xlink" xmlns="http://www.w3.org/2000/svg"><defs><clipPath id="d"><use xlink:href="#a"/></clipPath><clipPath id="e"><use xlink:href="#b"/></clipPath><clipPath id="f"><use xlink:href="#c"/></clipPath><path d="M0 0h26.168v12.749H0V0z" transform="translate(0 .018)" id="a"/><path d="M0 0h22.959v11.558H0V0z" transform="translate(.007 .09)" id="b"/><path d="M0 0h22.958v11.529H0V0z" transform="translate(.016 .087)" id="c"/></defs><path d="M.25 5.452h26.168V18.2H.25V5.45z" fill="none"/><g clip-path="url(#d)" transform="translate(.25 5.434)"><path d="M16.663 8.566a.788.788 0 00-.809.774.8.8 0 00.798.813.816.816 0 00.79-.782.787.787 0 00-.78-.805M2.378 11.161c.444 0 .792-.332.792-.758 0-.442-.369-.821-.797-.819a.778.778 0 00-.787.793.77.77 0 00.792.784M9.49 6.026a.786.786 0 00.803-.78.79.79 0 00-.783-.802.793.793 0 00-.804.784.784.784 0 00.784.798m15.072-3.64a.792.792 0 00-.782-.803.807.807 0 00-.802.79.794.794 0 00.788.797.78.78 0 00.796-.784M2.48 8.051c.333-.007.722.079 1.069.301.138.089.226.062.346-.025a434.316 434.316 0 013.181-2.31c.126-.09.154-.17.124-.321-.2-1.007.226-1.968 1.08-2.478.87-.52 1.915-.458 2.702.192.65.537.95 1.238.852 2.087-.016.138.02.204.137.27a281 281 0 012.966 1.707c.138.08.223.062.345-.026.692-.502 1.443-.582 2.234-.27.12.047.188.036.279-.053a948.393 948.393 0 013.706-3.623c.1-.097.106-.173.06-.299-.43-1.195.096-2.438 1.25-2.977 1.083-.505 2.434-.06 3.049 1.004.871 1.507-.216 3.46-1.96 3.49-.338.006-.676-.115-1.015-.166-.076-.011-.186-.001-.235.046a580.932 580.932 0 00-3.75 3.676c-.05.05-.064.182-.037.255a2.377 2.377 0 01-1.849 3.164c-1.501.255-2.903-1.082-2.703-2.586.02-.151-.026-.218-.15-.288a299.67 299.67 0 01-2.945-1.694c-.133-.078-.217-.076-.344.014-.818.579-1.671.611-2.544.13-.11-.06-.183-.064-.287.012-1.09.793-2.187 1.58-3.276 2.375-.06.044-.11.17-.092.24.29 1.153-.404 2.285-1.435 2.698-1.065.427-2.262.033-2.88-.975-.468-.765-.472-1.568-.05-2.356.414-.77 1.226-1.228 2.17-1.214" fill="#452B78" fill-rule="evenodd" stroke="#FFF" stroke-width=".5"/></g><path d="M1.889.34h22.958v11.558H1.89V.34z" fill="none"/><g clip-path="url(#e)" transform="translate(1.882 .25)"><path d="M22.945 3.65h-1.532v-.533c-.006-.945-.529-1.471-1.478-1.472H3.052c-.58-.001-1.083.162-1.331.724a2.057 2.057 0 00-.147.805c-.01 2.743-.007 5.486-.007 8.229v.245H.02c-.003-.042-.011-.108-.011-.174-.001-2.82-.005-5.64 0-8.46C.014 1.51.979.378 2.467.121c.173-.03.353-.03.53-.03 5.666 0 11.332-.002 16.999 0 1.549 0 2.697.947 2.942 2.452.059.365.008.748.008 1.107" fill="#452B78" fill-rule="evenodd" stroke="#FFF" stroke-width=".5"/></g><path d="M1.898 11.761h22.957V23.29H1.898V11.761z" fill="none"/><g clip-path="url(#f)" transform="translate(1.882 11.674)"><path d="M.036 8.04H1.58c0 .243-.02.504.003.762.067.754.559 1.21 1.319 1.244.054.002.108.001.162.001H19.95c.749 0 1.262-.347 1.436-.987a1.94 1.94 0 00.049-.502c.003-2.689.002-5.377.002-8.066 0-.407.027-.42.428-.4.358.019.719.004 1.099.004.002.038.008.113.008.187 0 2.797.004 5.593-.001 8.39-.003 1.443-.901 2.568-2.289 2.873a3.128 3.128 0 01-.665.067c-5.683.003-11.365.004-17.048.001-1.514 0-2.682-.972-2.924-2.455-.06-.365-.01-.749-.01-1.118" fill="#452B78" fill-rule="evenodd" stroke="#FFF" stroke-width=".5"/></g></svg>