<?xml version="1.0" encoding="utf-8"?>
<svg width="99px" height="47px" viewbox="0 0 99 47" version="1.1" xmlns:xlink="http://www.w3.org/1999/xlink" xmlns="http://www.w3.org/2000/svg">
  <g id="epm-logo-white-(1)">
    <g id="Group" transform="translate(32.899902 18.899902)">
      <path d="M14 3.59386C14.14 4.99386 14.35 6.04386 14.35 7.16386C14.42 10.6639 14.35 14.2339 14.35 17.7339C14.35 18.9239 14.28 18.9939 13.09 19.0639C10.99 19.0639 11.13 19.1339 11.13 17.1039L11.13 7.65386C11.13 7.44386 11.13 7.23386 11.13 6.95386C11.06 4.01386 9.59 2.68386 6.65 2.82386C5.81 2.89386 4.9 3.10386 4.06 3.24386C3.43 3.38386 3.15 3.80386 3.15 4.50386C3.15 8.91386 3.15 13.3239 3.15 17.7339C3.15 18.9239 3.01 18.9939 1.89 19.0639C0 19.0639 0 19.0639 0 17.1739C0 12.6239 0 8.07386 0 3.52386C0 1.98386 0.21 1.63386 1.68 1.07386C4.27 0.0238636 6.93 -0.256136 9.59 0.233864C10.22 0.373864 10.92 0.653864 11.48 1.00386C11.97 1.28386 12.32 1.28386 12.88 1.14386C15.12 0.233864 17.43 -0.0461364 19.81 0.0938636C23.03 0.303864 25.2 2.47386 25.27 5.76386C25.41 9.96386 25.34 14.0939 25.34 18.2939C25.34 18.9239 25.06 19.2039 24.43 19.2039C21.91 19.2039 22.12 19.3439 22.12 17.0339C22.12 13.9539 22.12 10.8739 22.12 7.79386C22.12 7.58386 22.12 7.37386 22.12 7.09386C21.98 4.08386 20.51 2.68386 17.5 3.03386C16.24 2.96386 15.05 3.38386 14 3.59386" transform="translate(39.83 0.39613637)" id="Path" fill="#FFFFFF" fill-rule="evenodd" stroke="none" />
      <path d="M3.22 18.7575C3.22 20.8575 3.22 22.8875 3.22 24.8475C3.22 25.3375 3.22 25.8275 3.22 26.2475C3.15 26.9475 3.01 27.0175 1.26 27.0175C0.7 27.0175 0.07 27.0875 0 26.2475C0 26.0375 0 25.8275 0 25.6175C0 18.1975 0 10.8475 0 3.42748C0 1.67748 0.21 1.39748 1.82 0.907477C4.55 -0.00252313 7.42 -0.212523 10.22 0.207477C13.16 0.697477 15.05 2.44748 15.33 5.38748C15.61 8.32748 15.61 11.2675 15.33 14.2075C14.98 17.4275 12.67 19.2475 9.45 19.5975C7.56 19.8075 5.74 19.5975 3.92 18.9675C3.71 18.8975 3.5 18.8975 3.22 18.7575M3.22 9.86748C3.22 11.6875 3.22 13.4375 3.22 15.2575C3.22 15.4675 3.36 15.8875 3.57 15.9575C5.11 16.5175 6.65 16.9375 8.33 16.7975C10.85 16.5875 12.11 15.4675 12.25 13.0175C12.39 10.7775 12.32 8.60748 12.18 6.36748C12.11 4.96748 11.27 3.91748 9.87 3.42748C7.77 2.72748 5.67 3.00748 3.64 3.63748C3.43 3.70748 3.22 4.19748 3.22 4.47748C3.22 6.22748 3.22 8.04748 3.22 9.86748" transform="translate(20.44 0.21252313)" id="Shape" fill="#FFFFFF" stroke="none" />
      <path d="M3.26468 10.7205C3.26468 11.6305 3.19468 12.4005 3.26468 13.2405C3.40468 14.7105 4.17468 15.8305 5.64468 16.3205C7.53468 17.0205 9.42468 17.0205 11.2447 16.0405C11.9447 15.6905 12.5047 14.9905 12.9947 14.3605C13.4847 13.8005 13.9047 13.5905 14.5347 14.0105C14.5347 14.0105 14.6047 14.0105 14.6047 14.0805C16.3547 14.9905 16.4247 15.2705 15.1647 16.8105C14.3247 17.8605 13.2047 18.6305 11.8747 19.0505C9.70468 19.7505 7.46468 19.8205 5.29468 19.3305C2.35468 18.6305 0.464678 16.7405 0.184678 13.7305C-0.0253219 11.2105 -0.0953219 8.55055 0.184678 6.03055C0.604678 2.53055 3.05468 0.430546 6.69468 0.0805459C8.30468 -0.0594541 9.91468 -0.0594541 11.4547 0.430546C14.3947 1.41055 16.1447 3.65055 16.2847 6.73055C16.3547 7.64055 16.2847 8.55055 16.2847 9.53055C16.2847 10.3005 16.0047 10.6505 15.1647 10.7205C14.8847 10.7205 14.5347 10.7905 14.2547 10.7905C10.8947 10.7905 7.53468 10.7905 4.17468 10.7905L3.26468 10.7905L3.26468 10.7205ZM13.0647 8.20055C13.0647 7.64055 13.0647 7.08055 13.0647 6.59055C12.9247 4.56055 11.7347 3.16055 9.70468 2.81055C8.93468 2.67055 8.02468 2.60055 7.25468 2.67055C4.38468 2.95055 2.70468 5.33055 3.40468 8.20055L13.0647 8.20055L13.0647 8.20055Z" transform="translate(0.58532184 0.33945405)" id="Shape" fill="#FFFFFF" stroke="none" />
    </g>
    <g id="Group">
      <path d="M9.52 31.71L0.21 22.4C-0.07 22.12 -0.07 21.7 0.21 21.49L0.7 21C0.98 20.72 1.4 20.72 1.61 21L9.94 29.33C10.29 29.68 10.78 29.68 11.13 29.33L32.76 7.7C33.11 7.35 33.11 6.86 32.76 6.51L29.12 2.87C28.77 2.52 28.28 2.52 27.93 2.87L11.55 19.18C10.99 19.74 10.01 19.74 9.45 19.18L6.37 16.1C6.09 15.82 6.09 15.4 6.37 15.19L6.86 14.7C7.14 14.42 7.56 14.42 7.77 14.7L9.87 16.8C10.22 17.15 10.71 17.15 11.06 16.8L27.51 0.42C28.07 -0.14 29.05 -0.14 29.61 0.42L35.21 6.02C35.77 6.58 35.77 7.56 35.21 8.12L11.55 31.71C10.99 32.27 10.08 32.27 9.52 31.71" transform="translate(5.95 0.56)" id="Path" fill="#45B374" fill-rule="evenodd" stroke="none" />
      <path d="M15.33 32.06L0.42 17.08C-0.14 16.52 -0.14 15.54 0.42 14.98L6.02 9.38C6.58 8.82 7.56 8.82 8.12 9.38L15.89 17.15C16.24 17.5 16.73 17.5 17.08 17.15L33.95 0.21C34.23 -0.07 34.65 -0.07 34.86 0.21L35.35 0.7C35.63 0.98 35.63 1.4 35.35 1.61L17.43 19.6C16.87 20.16 15.89 20.16 15.33 19.6L7.63 11.83C7.28 11.48 6.79 11.48 6.44 11.83L2.8 15.47C2.45 15.82 2.45 16.31 2.8 16.66L15.82 29.68C16.17 30.03 16.66 30.03 17.01 29.68L24.64 22.05C24.92 21.77 25.34 21.77 25.55 22.05L26.04 22.54C26.32 22.82 26.32 23.24 26.04 23.45L17.43 32.06C16.87 32.62 15.96 32.62 15.33 32.06" transform="translate(0.07 6.44)" id="Path" fill="#FFFFFF" fill-rule="evenodd" stroke="none" />
    </g>
  </g>
</svg>