<svg width="99" height="47" xmlns="http://www.w3.org/2000/svg"><g fill="#FFF"><path d="M86.73 22.89c.14 1.4.35 2.45.35 3.57.07 3.5 0 7.07 0 10.57 0 1.19-.07 1.26-1.26 1.33-2.1 0-1.96.07-1.96-1.96V26.25c-.07-2.94-1.54-4.27-4.48-4.13-.84.07-1.75.28-2.59.42-.63.14-.91.56-.91 1.26v13.23c0 1.19-.14 1.26-1.26 1.33-1.89 0-1.89 0-1.89-1.89V22.82c0-1.54.21-1.89 1.68-2.45 2.59-1.05 5.25-1.33 7.91-.84.63.14 1.33.42 1.89.77.49.28.84.28 1.4.14 2.24-.91 4.55-1.19 6.93-1.05 3.22.21 5.39 2.38 5.46 5.67.14 4.2.07 8.33.07 12.53 0 .63-.28.91-.91.91-2.52 0-2.31.14-2.31-2.17v-9.94c-.14-3.01-1.61-4.41-4.62-4.06-1.26-.07-2.45.35-3.5.56" fill-rule="evenodd"/><path d="M56.56 37.87v7.49c-.07.7-.21.77-1.96.77-.56 0-1.19.07-1.26-.77V22.54c0-1.75.21-2.03 1.82-2.52 2.73-.91 5.6-1.12 8.4-.7 2.94.49 4.83 2.24 5.11 5.18.28 2.94.28 5.88 0 8.82-.35 3.22-2.66 5.04-5.88 5.39-1.89.21-3.71 0-5.53-.63-.21-.07-.42-.07-.7-.21m0-8.89v5.39c0 .21.14.63.35.7 1.54.56 3.08.98 4.76.84 2.52-.21 3.78-1.33 3.92-3.78.14-2.24.07-4.41-.07-6.65-.07-1.4-.91-2.45-2.31-2.94-2.1-.7-4.2-.42-6.23.21-.21.07-.42.56-.42.84v5.39m-19.81.98c0 .91-.07 1.68 0 2.52.14 1.47.91 2.59 2.38 3.08 1.89.7 3.78.7 5.6-.28.7-.35 1.26-1.05 1.75-1.68.49-.56.91-.77 1.54-.35 0 0 .07 0 .07.07 1.75.91 1.82 1.19.56 2.73a6.778 6.778 0 01-3.29 2.24c-2.17.7-4.41.77-6.58.28-2.94-.7-4.83-2.59-5.11-5.6-.21-2.52-.28-5.18 0-7.7.42-3.5 2.87-5.6 6.51-5.95 1.61-.14 3.22-.14 4.76.35 2.94.98 4.69 3.22 4.83 6.3.07.91 0 1.82 0 2.8 0 .77-.28 1.12-1.12 1.19-.28 0-.63.07-.91.07H36.75v-.07zm9.8-2.52v-1.61c-.14-2.03-1.33-3.43-3.36-3.78-.77-.14-1.68-.21-2.45-.14-2.87.28-4.55 2.66-3.85 5.53h9.66z"/></g><g fill-rule="evenodd"><path d="M15.47 32.27l-9.31-9.31c-.28-.28-.28-.7 0-.91l.49-.49c.28-.28.7-.28.91 0l8.33 8.33c.35.35.84.35 1.19 0L38.71 8.26c.35-.35.35-.84 0-1.19l-3.64-3.64c-.35-.35-.84-.35-1.19 0L17.5 19.74c-.56.56-1.54.56-2.1 0l-3.08-3.08c-.28-.28-.28-.7 0-.91l.49-.49c.28-.28.7-.28.91 0l2.1 2.1c.35.35.84.35 1.19 0L33.46.98c.56-.56 1.54-.56 2.1 0l5.6 5.6c.56.56.56 1.54 0 2.1L17.5 32.27c-.56.56-1.47.56-2.03 0" fill="#45B374"/><path d="M15.4 38.5L.49 23.52c-.56-.56-.56-1.54 0-2.1l5.6-5.6c.56-.56 1.54-.56 2.1 0l7.77 7.77c.35.35.84.35 1.19 0L34.02 6.65c.28-.28.7-.28.91 0l.49.49c.28.28.28.7 0 .91L17.5 26.04c-.56.56-1.54.56-2.1 0l-7.7-7.77c-.35-.35-.84-.35-1.19 0l-3.64 3.64c-.35.35-.35.84 0 1.19l13.02 13.02c.35.35.84.35 1.19 0l7.63-7.63c.28-.28.7-.28.91 0l.49.49c.28.28.28.7 0 .91L17.5 38.5c-.56.56-1.47.56-2.1 0" fill="#FFF"/></g></svg>